<?xml version="1.0" encoding="UTF-8" standalone="no"?><svg width="1000" height="1300" xmlns="http://www.w3.org/2000/svg" stroke-linejoin="round" stroke-linecap="round" fill-rule="evenodd" fill="none"><rect x="0" y="0" width="1000" height="1300" fill="#F2EDDE"/><g transform="scale(100 100) translate(3 3)"><path d=" M 0,0"/><g><path d=" M 0,0"/><g><path d=" M 0,0"/><path d=" M 1.791,-0.35 L 1.65,-0.209 M 1.933,-0.35 L 1.65,-0.067 M 2.074,-0.35 L 1.65,0.074 M 2.216,-0.35 L 1.65,0.216 M 2.357,-0.35 L 1.65,0.357 M 2.499,-0.35 L 1.65,0.499 M 2.64,-0.35 L 1.65,0.64 M 2.781,-0.35 L 1.65,0.781 M 2.923,-0.35 L 1.65,0.923 M 3.064,-0.35 L 1.65,1.064 M 3.206,-0.35 L 1.65,1.206 M 3.347,-0.35 L 1.65,1.347 M 3.488,-0.35 L 1.65,1.488 M 3.63,-0.35 L 1.65,1.63 M 3.771,-0.35 L 1.65,1.771 M 3.913,-0.35 L 1.65,1.913 M 4.054,-0.35 L 1.65,2.054 M 4.196,-0.35 L 1.65,2.196 M 4.337,-0.35 L 1.65,2.337 M 4.35,-0.222 L 1.65,2.478 M 4.35,-0.08 L 1.65,2.62 M 4.35,0.061 L 1.65,2.761 M 4.35,0.203 L 1.65,2.903 M 4.35,0.344 L 1.65,3.044 M 4.35,0.486 L 1.65,3.186 M 4.35,0.627 L 1.65,3.327 M 4.35,0.768 L 1.65,3.468 M 4.35,0.91 L 1.65,3.61 M 4.35,1.051 L 1.65,3.751 M 4.35,1.193 L 1.65,3.893 M 4.35,1.334 L 1.65,4.034 M 4.35,1.475 L 1.65,4.175 M 4.35,1.617 L 1.65,4.317 M 4.35,1.758 L 1.65,4.458 M 4.35,1.9 L 1.65,4.6 M 4.35,2.041 L 1.65,4.741 M 4.35,2.183 L 1.65,4.883 M 4.35,2.324 L 1.65,5.024 M 4.35,2.465 L 1.65,5.165 M 4.35,2.607 L 1.65,5.307 M 4.35,2.748 L 1.65,5.448 M 4.35,2.89 L 1.65,5.59 M 4.35,3.031 L 1.65,5.731 M 4.35,3.173 L 1.65,5.873 M 4.35,3.314 L 1.65,6.014 M 4.35,3.455 L 1.65,6.155 M 4.35,3.597 L 1.65,6.297 M 4.35,3.738 L 1.738,6.35 M 4.35,3.88 L 1.88,6.35 M 4.35,4.021 L 2.021,6.35 M 4.35,4.162 L 2.162,6.35 M 4.35,4.304 L 2.304,6.35 M 4.35,4.445 L 2.445,6.35 M 4.35,4.587 L 2.587,6.35 M 4.35,4.728 L 2.728,6.35 M 4.35,4.87 L 2.87,6.35 M 4.35,5.011 L 3.011,6.35 M 4.35,5.152 L 3.152,6.35 M 4.35,5.294 L 3.294,6.35 M 4.35,5.435 L 3.435,6.35 M 4.35,5.577 L 3.577,6.35 M 4.35,5.718 L 3.718,6.35 M 4.35,5.86 L 3.86,6.35 M 4.35,6.001 L 4.001,6.35 M 4.35,6.142 L 4.142,6.35 M 4.35,6.284 L 4.284,6.35" stroke="#000000" stroke-width="0.02"/></g><g><path d=" M 0,0"/><path d=" M 3,3 L 4,3 L 4,4 L 4,5 L 4,6 L 3,6 L 2,6 L 2,5 L 2,4 L 2,3 L 3,3" fill="#8B796B" stroke="#8B796B" stroke-width="0.02"/><path d=" M 3,3 L 2,3 L 2,2 L 2,1 L 2,0 L 3,0 L 4,0 L 4,1 L 4,2 L 4,3 L 3,3" fill="#8B796B" stroke="#8B796B" stroke-width="0.02"/></g><g><path d=" M 0,0"/><path d=" M 3,0 L 3,0.03 M 3,0.1 L 3,0.13 M 3,0.2 L 3,0.23 M 3,0.3 L 3,0.33 M 3,0.4 L 3,0.43 M 3,0.5 L 3,0.53 M 3,0.6 L 3,0.63 M 3,0.7 L 3,0.73 M 3,0.8 L 3,0.83 M 3,0.9 L 3,0.93 M 2,1 L 2.03,1 M 2.1,1 L 2.13,1 M 2.2,1 L 2.23,1 M 2.3,1 L 2.33,1 M 2.4,1 L 2.43,1 M 2.5,1 L 2.53,1 M 2.6,1 L 2.63,1 M 2.7,1 L 2.73,1 M 2.8,1 L 2.83,1 M 2.9,1 L 2.93,1 M 3,1 L 3,1 M 3,1 L 3,1.03 M 3,1.1 L 3,1.13 M 3,1.2 L 3,1.23 M 3,1.3 L 3,1.33 M 3,1.4 L 3,1.43 M 3,1.5 L 3,1.53 M 3,1.6 L 3,1.63 M 3,1.7 L 3,1.73 M 3,1.8 L 3,1.83 M 3,1.9 L 3,1.93 M 3,1 L 3.03,1 M 3.1,1 L 3.13,1 M 3.2,1 L 3.23,1 M 3.3,1 L 3.33,1 M 3.4,1 L 3.43,1 M 3.5,1 L 3.53,1 M 3.6,1 L 3.63,1 M 3.7,1 L 3.73,1 M 3.8,1 L 3.83,1 M 3.9,1 L 3.93,1 M 4,1 L 4,1 M 2,2 L 2.03,2 M 2.1,2 L 2.13,2 M 2.2,2 L 2.23,2 M 2.3,2 L 2.33,2 M 2.4,2 L 2.43,2 M 2.5,2 L 2.53,2 M 2.6,2 L 2.63,2 M 2.7,2 L 2.73,2 M 2.8,2 L 2.83,2 M 2.9,2 L 2.93,2 M 3,2 L 3,2 M 3,2 L 3,2.03 M 3,2.1 L 3,2.13 M 3,2.2 L 3,2.23 M 3,2.3 L 3,2.33 M 3,2.4 L 3,2.43 M 3,2.5 L 3,2.53 M 3,2.6 L 3,2.63 M 3,2.7 L 3,2.73 M 3,2.8 L 3,2.83 M 3,2.9 L 3,2.93 M 3,3 L 3,3 M 3,2 L 3.03,2 M 3.1,2 L 3.13,2 M 3.2,2 L 3.23,2 M 3.3,2 L 3.33,2 M 3.4,2 L 3.43,2 M 3.5,2 L 3.53,2 M 3.6,2 L 3.63,2 M 3.7,2 L 3.73,2 M 3.8,2 L 3.83,2 M 3.9,2 L 3.93,2 M 4,2 L 4,2 M 2,3 L 2.03,3 M 2.1,3 L 2.13,3 M 2.2,3 L 2.23,3 M 2.3,3 L 2.33,3 M 2.4,3 L 2.43,3 M 2.5,3 L 2.53,3 M 2.6,3 L 2.63,3 M 2.7,3 L 2.73,3 M 2.8,3 L 2.83,3 M 2.9,3 L 2.93,3 M 3,3 L 3,3 M 3,3 L 3,3.03 M 3,3.1 L 3,3.13 M 3,3.2 L 3,3.23 M 3,3.3 L 3,3.33 M 3,3.4 L 3,3.43 M 3,3.5 L 3,3.53 M 3,3.6 L 3,3.63 M 3,3.7 L 3,3.73 M 3,3.8 L 3,3.83 M 3,3.9 L 3,3.93 M 3,4 L 3,4 M 3,3 L 3.03,3 M 3.1,3 L 3.13,3 M 3.2,3 L 3.23,3 M 3.3,3 L 3.33,3 M 3.4,3 L 3.43,3 M 3.5,3 L 3.53,3 M 3.6,3 L 3.63,3 M 3.7,3 L 3.73,3 M 3.8,3 L 3.83,3 M 3.9,3 L 3.93,3 M 4,3 L 4,3 M 2,4 L 2.03,4 M 2.1,4 L 2.13,4 M 2.2,4 L 2.23,4 M 2.3,4 L 2.33,4 M 2.4,4 L 2.43,4 M 2.5,4 L 2.53,4 M 2.6,4 L 2.63,4 M 2.7,4 L 2.73,4 M 2.8,4 L 2.83,4 M 2.9,4 L 2.93,4 M 3,4 L 3,4 M 3,4 L 3,4.03 M 3,4.1 L 3,4.13 M 3,4.2 L 3,4.23 M 3,4.3 L 3,4.33 M 3,4.4 L 3,4.43 M 3,4.5 L 3,4.53 M 3,4.6 L 3,4.63 M 3,4.7 L 3,4.73 M 3,4.8 L 3,4.83 M 3,4.9 L 3,4.93 M 3,4 L 3.03,4 M 3.1,4 L 3.13,4 M 3.2,4 L 3.23,4 M 3.3,4 L 3.33,4 M 3.4,4 L 3.43,4 M 3.5,4 L 3.53,4 M 3.6,4 L 3.63,4 M 3.7,4 L 3.73,4 M 3.8,4 L 3.83,4 M 3.9,4 L 3.93,4 M 4,4 L 4,4 M 2,5 L 2.03,5 M 2.1,5 L 2.13,5 M 2.2,5 L 2.23,5 M 2.3,5 L 2.33,5 M 2.4,5 L 2.43,5 M 2.5,5 L 2.53,5 M 2.6,5 L 2.63,5 M 2.7,5 L 2.73,5 M 2.8,5 L 2.83,5 M 2.9,5 L 2.93,5 M 3,5 L 3,5 M 3,5 L 3,5.03 M 3,5.1 L 3,5.13 M 3,5.2 L 3,5.23 M 3,5.3 L 3,5.33 M 3,5.4 L 3,5.43 M 3,5.5 L 3,5.53 M 3,5.6 L 3,5.63 M 3,5.7 L 3,5.73 M 3,5.8 L 3,5.83 M 3,5.9 L 3,5.93 M 3,5 L 3.03,5 M 3.1,5 L 3.13,5 M 3.2,5 L 3.23,5 M 3.3,5 L 3.33,5 M 3.4,5 L 3.43,5 M 3.5,5 L 3.53,5 M 3.6,5 L 3.63,5 M 3.7,5 L 3.73,5 M 3.8,5 L 3.83,5 M 3.9,5 L 3.93,5 M 4,5 L 4,5" stroke="#000000" stroke-width="0.02" stroke-opacity="0.4"/></g><g><path d=" M 0,0"/><path d=" M 2.013,4.939 L 2.013,4.693 L 2.503,4.693 L 2.503,4.939 L 2.013,4.939 M 2,4.923 L 2,4.503 L 2.622,4.503 L 2.622,4.923 L 2,4.923 M 2.422,5.216 L 2.422,4.833 L 2.656,4.833 L 2.656,5.216 L 2.422,5.216" stroke="#000000" stroke-width="0.04" stroke-opacity="0.4"/><path d=" M 2.013,4.939 L 2.013,4.693 L 2.503,4.693 L 2.503,4.939 L 2.013,4.939" fill="#B29C85"/><path d=" M 2,4.923 L 2,4.503 L 2.622,4.503 L 2.622,4.923 L 2,4.923" fill="#B29C85"/><path d=" M 2.422,5.216 L 2.422,4.833 L 2.656,4.833 L 2.656,5.216 L 2.422,5.216" fill="#B29C85"/><path d=" M 2.46,4.896 L 2.057,4.896 L 2.057,4.737 L 2.46,4.737 L 2.46,4.896" stroke="#000000" stroke-width="0.02" stroke-opacity="0.4"/><path d=" M 3.329,5.75 L 3.329,5.52 L 3.775,5.52 L 3.775,5.75 L 3.329,5.75 M 3.101,5.983 L 3.101,5.546 L 3.737,5.546 L 3.737,5.983 L 3.101,5.983 M 3.298,6 L 3.298,5.389 L 3.777,5.389 L 3.777,6 L 3.298,6" stroke="#000000" stroke-width="0.04" stroke-opacity="0.4"/><path d=" M 3.329,5.75 L 3.329,5.52 L 3.775,5.52 L 3.775,5.75 L 3.329,5.75" fill="#B29C85"/><path d=" M 3.101,5.983 L 3.101,5.546 L 3.737,5.546 L 3.737,5.983 L 3.101,5.983" fill="#B29C85"/><path d=" M 3.298,6 L 3.298,5.389 L 3.777,5.389 L 3.777,6 L 3.298,6" fill="#B29C85"/><path d=" M 3.735,5.71 L 3.369,5.71 L 3.369,5.56 L 3.735,5.56 L 3.735,5.71" stroke="#000000" stroke-width="0.02" stroke-opacity="0.4"/><path d=" M 2,4.074 L 2,3.491 L 2.414,3.491 L 2.414,4.074 L 2,4.074" stroke="#000000" stroke-width="0.04" stroke-opacity="0.4"/><path d=" M 2,4.074 L 2,3.491 L 2.414,3.491 L 2.414,4.074 L 2,4.074" fill="#B29C85"/><path d=" M 2.352,4.013 L 2.061,4.013 L 2.061,3.552 L 2.352,3.552 L 2.352,4.013" stroke="#000000" stroke-width="0.02" stroke-opacity="0.4"/><path d=" M 2.492,5.964 L 2.492,5.777 L 2.837,5.777 L 2.837,5.964 L 2.492,5.964 M 2.503,5.461 L 2.503,5.244 L 2.841,5.244 L 2.841,5.461 L 2.503,5.461 M 2.198,6 L 2.198,5.509 L 2.818,5.509 L 2.818,6 L 2.198,6" stroke="#000000" stroke-width="0.04" stroke-opacity="0.4"/><path d=" M 2.492,5.964 L 2.492,5.777 L 2.837,5.777 L 2.837,5.964 L 2.492,5.964" fill="#B29C85"/><path d=" M 2.503,5.461 L 2.503,5.244 L 2.841,5.244 L 2.841,5.461 L 2.503,5.461" fill="#B29C85"/><path d=" M 2.198,6 L 2.198,5.509 L 2.818,5.509 L 2.818,6 L 2.198,6" fill="#B29C85"/><path d=" M 2.805,5.932 L 2.524,5.932 L 2.524,5.809 L 2.805,5.809 L 2.805,5.932" stroke="#000000" stroke-width="0.02" stroke-opacity="0.4"/><path d=" M 3.372,6 L 3.372,5.444 L 3.729,5.444 L 3.729,6 L 3.372,6" stroke="#000000" stroke-width="0.04" stroke-opacity="0.4"/><path d=" M 3.372,6 L 3.372,5.444 L 3.729,5.444 L 3.729,6 L 3.372,6" fill="#B29C85"/><path d=" M 3.673,5.944 L 3.428,5.944 L 3.428,5.5 L 3.673,5.5 L 3.673,5.944" stroke="#000000" stroke-width="0.02" stroke-opacity="0.4"/><path d=" M 2.412,0.117 L 2.427,0.19 L 2.412,0.263 L 2.371,0.325 L 2.309,0.366 L 2.237,0.38 L 2.164,0.366 L 2.102,0.325 L 2.061,0.263 L 2.046,0.19 L 2.061,0.117 L 2.102,0.056 L 2.164,0.014 L 2.237,0 L 2.309,0.014 L 2.371,0.056 L 2.412,0.117" stroke="#000000" stroke-width="0.04" stroke-opacity="0.4"/><path d=" M 2.412,0.117 L 2.427,0.19 L 2.412,0.263 L 2.371,0.325 L 2.309,0.366 L 2.237,0.38 L 2.164,0.366 L 2.102,0.325 L 2.061,0.263 L 2.046,0.19 L 2.061,0.117 L 2.102,0.056 L 2.164,0.014 L 2.237,0 L 2.309,0.014 L 2.371,0.056 L 2.412,0.117" fill="#B29C85"/><path d=" M 2.341,0.086 L 2.373,0.134 L 2.384,0.19 L 2.373,0.247 L 2.341,0.295 L 2.293,0.327 L 2.237,0.338 L 2.18,0.327 L 2.132,0.295 L 2.1,0.247 L 2.089,0.19 L 2.1,0.134 L 2.132,0.086 L 2.18,0.054 L 2.237,0.042 L 2.293,0.054 L 2.341,0.086" stroke="#000000" stroke-width="0.02" stroke-opacity="0.4"/><path d=" M 3.712,0.126 L 3.728,0.205 L 3.712,0.283 L 3.668,0.349 L 3.601,0.394 L 3.523,0.409 L 3.445,0.394 L 3.378,0.349 L 3.334,0.283 L 3.318,0.205 L 3.334,0.126 L 3.378,0.06 L 3.445,0.016 L 3.523,0 L 3.601,0.016 L 3.668,0.06 L 3.712,0.126" stroke="#000000" stroke-width="0.04" stroke-opacity="0.4"/><path d=" M 3.712,0.126 L 3.728,0.205 L 3.712,0.283 L 3.668,0.349 L 3.601,0.394 L 3.523,0.409 L 3.445,0.394 L 3.378,0.349 L 3.334,0.283 L 3.318,0.205 L 3.334,0.126 L 3.378,0.06 L 3.445,0.016 L 3.523,0 L 3.601,0.016 L 3.668,0.06 L 3.712,0.126" fill="#B29C85"/><path d=" M 3.635,0.092 L 3.67,0.144 L 3.682,0.205 L 3.67,0.265 L 3.635,0.317 L 3.584,0.351 L 3.523,0.364 L 3.462,0.351 L 3.411,0.317 L 3.376,0.265 L 3.364,0.205 L 3.376,0.144 L 3.411,0.092 L 3.462,0.058 L 3.523,0.046 L 3.584,0.058 L 3.635,0.092" stroke="#000000" stroke-width="0.02" stroke-opacity="0.4"/><path d=" M 3.266,0.282 L 3.266,0 L 3.767,0 L 3.767,0.282 L 3.266,0.282" stroke="#000000" stroke-width="0.04" stroke-opacity="0.4"/><path d=" M 3.266,0.282 L 3.266,0 L 3.767,0 L 3.767,0.282 L 3.266,0.282" fill="#B29C85"/><path d=" M 3.72,0.235 L 3.313,0.235 L 3.313,0.047 L 3.72,0.047 L 3.72,0.235" stroke="#000000" stroke-width="0.02" stroke-opacity="0.4"/><path d=" M 2.376,2.662 L 2.379,2.731 L 2.355,2.796 L 2.307,2.847 L 2.244,2.876 L 2.174,2.879 L 2.109,2.854 L 2.058,2.807 L 2.029,2.743 L 2.027,2.674 L 2.051,2.609 L 2.098,2.558 L 2.162,2.529 L 2.231,2.526 L 2.297,2.551 L 2.348,2.598 L 2.376,2.662" stroke="#000000" stroke-width="0.04" stroke-opacity="0.4"/><path d=" M 2.376,2.662 L 2.379,2.731 L 2.355,2.796 L 2.307,2.847 L 2.244,2.876 L 2.174,2.879 L 2.109,2.854 L 2.058,2.807 L 2.029,2.743 L 2.027,2.674 L 2.051,2.609 L 2.098,2.558 L 2.162,2.529 L 2.231,2.526 L 2.297,2.551 L 2.348,2.598 L 2.376,2.662" fill="#B29C85"/><path d=" M 2.315,2.621 L 2.338,2.671 L 2.34,2.725 L 2.321,2.775 L 2.284,2.815 L 2.235,2.838 L 2.18,2.839 L 2.13,2.82 L 2.09,2.784 L 2.068,2.734 L 2.066,2.68 L 2.085,2.63 L 2.122,2.59 L 2.171,2.568 L 2.225,2.566 L 2.276,2.585 L 2.315,2.621" stroke="#000000" stroke-width="0.02" stroke-opacity="0.4"/></g><g><path d=" M 0,0"/><path d=" M 2.9,1.5 L 3,1.5 L 3,2 L 2.9,2 L 2.9,1.5" fill="#A58F7D" stroke="#000000" stroke-width="0.02"/><path d=" M 2.8,1.5 L 2.9,1.5 L 2.9,2 L 2.8,2 L 2.8,1.5" fill="#A58F7D" stroke="#000000" stroke-width="0.02"/><path d=" M 2.7,1.5 L 2.8,1.5 L 2.8,2 L 2.7,2 L 2.7,1.5" fill="#A58F7D" stroke="#000000" stroke-width="0.02"/><path d=" M 2.6,1.5 L 2.7,1.5 L 2.7,2 L 2.6,2 L 2.6,1.5" fill="#A58F7D" stroke="#000000" stroke-width="0.02"/><path d=" M 2.5,1.5 L 2.6,1.5 L 2.6,2 L 2.5,2 L 2.5,1.5" fill="#A58F7D" stroke="#000000" stroke-width="0.02"/><path d=" M 2,1.4 L 2.5,1.4 L 2.5,1.5 L 2,1.5 L 2,1.4" fill="#A58F7D" stroke="#000000" stroke-width="0.02"/><path d=" M 2,1.3 L 2.5,1.3 L 2.5,1.4 L 2,1.4 L 2,1.3" fill="#A58F7D" stroke="#000000" stroke-width="0.02"/><path d=" M 2,1.2 L 2.5,1.2 L 2.5,1.3 L 2,1.3 L 2,1.2" fill="#A58F7D" stroke="#000000" stroke-width="0.02"/><path d=" M 2,1.1 L 2.5,1.1 L 2.5,1.2 L 2,1.2 L 2,1.1" fill="#A58F7D" stroke="#000000" stroke-width="0.02"/><path d=" M 2,1 L 2.5,1 L 2.5,1.1 L 2,1.1 L 2,1" fill="#A58F7D" stroke="#000000" stroke-width="0.02"/><path d=" M 2,1.5 L 2.5,1.5 L 2.5,2 L 2,2 L 2,1.5" fill="#A58F7D" stroke="#000000" stroke-width="0.02"/><path d=" M 3.25,1.75 L 3.039,1.75 L 2.93,1.75 L 2.852,1.75 L 2.781,1.75 L 2.719,1.75 L 2.656,1.75 L 2.594,1.75 L 2.531,1.75 L 2.469,1.75 L 2.414,1.742 L 2.367,1.727 L 2.328,1.703 L 2.297,1.672 L 2.273,1.625 L 2.258,1.563 L 2.25,1.461 L 2.25,1.25 M 2.25,1.25 L 2.191,1.331 M 2.25,1.25 L 2.309,1.331 M 3.27,1.75 Q 3.27,1.758 3.264,1.764 Q 3.258,1.77 3.25,1.77 L 3.25,1.77 Q 3.242,1.77 3.236,1.764 Q 3.23,1.758 3.23,1.75 L 3.23,1.75 Q 3.23,1.742 3.236,1.736 Q 3.242,1.73 3.25,1.73 L 3.25,1.73 Q 3.258,1.73 3.264,1.736 Q 3.27,1.742 3.27,1.75 L 3.27,1.75" stroke="#000000" stroke-width="0.02"/></g><g style="mix-blend-mode: multiply"><path d=" M 0,0"/><path d=" M 3.5,3.5 L 4,3.5 L 4,5.5 L 3.5,5.5 L 3.5,3.5" fill="url(#grad1)"/><path d=" M 3.5,5.5 L 3.5,6 L 2.5,6 L 2.5,5.5 L 3.5,5.5" fill="url(#grad2)"/><path d=" M 2.5,5.5 L 2,5.5 L 2,3.5 L 2.5,3.5 L 2.5,5.5" fill="url(#grad3)"/><path d=" M 2.5,3.5 L 2.5,3 L 3.5,3 L 3.5,3.5 L 2.5,3.5" fill="url(#grad4)"/><path d=" M 3.5,3 L 4,3 L 4,3.5 L 3.5,3.5 L 3.5,3" fill="url(#grad5)"/><path d=" M 4,5.5 L 4,6 L 3.5,6 L 3.5,5.5 L 4,5.5" fill="url(#grad6)"/><path d=" M 2.5,6 L 2,6 L 2,5.5 L 2.5,5.5 L 2.5,6" fill="url(#grad7)"/><path d=" M 2,3.5 L 2,3 L 2.5,3 L 2.5,3.5 L 2,3.5" fill="url(#grad8)"/><path d=" M 2.5,2.5 L 2,2.5 L 2,0.5 L 2.5,0.5 L 2.5,2.5" fill="url(#grad9)"/><path d=" M 2.5,0.5 L 2.5,0 L 3.5,0 L 3.5,0.5 L 2.5,0.5" fill="url(#grad10)"/><path d=" M 3.5,0.5 L 4,0.5 L 4,2.5 L 3.5,2.5 L 3.5,0.5" fill="url(#grad11)"/><path d=" M 3.5,2.5 L 3.5,3 L 2.5,3 L 2.5,2.5 L 3.5,2.5" fill="url(#grad12)"/><path d=" M 2.5,3 L 2,3 L 2,2.5 L 2.5,2.5 L 2.5,3" fill="url(#grad13)"/><path d=" M 2,0.5 L 2,0 L 2.5,0 L 2.5,0.5 L 2,0.5" fill="url(#grad14)"/><path d=" M 3.5,0 L 4,0 L 4,0.5 L 3.5,0.5 L 3.5,0" fill="url(#grad15)"/><path d=" M 4,2.5 L 4,3 L 3.5,3 L 3.5,2.5 L 4,2.5" fill="url(#grad16)"/><path d=" M 4,0 L 4,6 L 2,6 L 2,0 L 4,0" fill="url(#grad17)"/><path d=" M 2,3 L 4,3 L 4,6 L 2,6 L 2,3" fill="url(#grad18)"/><path d=" M 4,3 L 2,3 L 2,0 L 4,0 L 4,3" fill="url(#grad19)"/></g><g style="mix-blend-mode: plus-lighter"><path d=" M 0,0"/><path d=" M 2,3 L 4,3 L 4,6 L 2,6 L 2,3" fill="url(#grad20)"/><path d=" M 4,3 L 2,3 L 2,0 L 4,0 L 4,3" fill="url(#grad21)"/></g><g><path d=" M 0,0"/><path d=" M 4.008,5.97 L 4.008,6.13 L 2.992,6.13 L 2.992,5.97 L 4.008,5.97" fill="#000000" stroke="#000000" stroke-width="0.04" stroke-linejoin="miter" stroke-linecap="square"/><path d=" M 3.945,5.945 L 4.055,5.945 L 4.055,6.055 L 3.945,6.055 L 3.945,5.945" fill="#000000" stroke="#000000" stroke-width="0.04" stroke-linejoin="miter" stroke-linecap="square"/><path d=" M 3.008,5.97 L 3.008,6.13 L 1.992,6.13 L 1.992,5.97 L 3.008,5.97" fill="#000000" stroke="#000000" stroke-width="0.04" stroke-linejoin="miter" stroke-linecap="square"/><path d=" M 2.945,5.945 L 3.055,5.945 L 3.055,6.055 L 2.945,6.055 L 2.945,5.945" fill="#000000" stroke="#000000" stroke-width="0.04" stroke-linejoin="miter" stroke-linecap="square"/><path d=" M 2.03,6.008 L 1.87,6.008 L 1.87,4.992 L 2.03,4.992 L 2.03,6.008" fill="#000000" stroke="#000000" stroke-width="0.04" stroke-linejoin="miter" stroke-linecap="square"/><path d=" M 1.945,5.945 L 2.055,5.945 L 2.055,6.055 L 1.945,6.055 L 1.945,5.945" fill="#000000" stroke="#000000" stroke-width="0.04" stroke-linejoin="miter" stroke-linecap="square"/><path d=" M 2.03,5.008 L 1.87,5.008 L 1.87,3.992 L 2.03,3.992 L 2.03,5.008" fill="#000000" stroke="#000000" stroke-width="0.04" stroke-linejoin="miter" stroke-linecap="square"/><path d=" M 1.945,4.945 L 2.055,4.945 L 2.055,5.055 L 1.945,5.055 L 1.945,4.945" fill="#000000" stroke="#000000" stroke-width="0.04" stroke-linejoin="miter" stroke-linecap="square"/><path d=" M 2.03,4.008 L 1.87,4.008 L 1.87,2.992 L 2.03,2.992 L 2.03,4.008" fill="#000000" stroke="#000000" stroke-width="0.04" stroke-linejoin="miter" stroke-linecap="square"/><path d=" M 1.945,3.945 L 2.055,3.945 L 2.055,4.055 L 1.945,4.055 L 1.945,3.945" fill="#000000" stroke="#000000" stroke-width="0.04" stroke-linejoin="miter" stroke-linecap="square"/><path d=" M 2.03,3.008 L 1.87,3.008 L 1.87,1.992 L 2.03,1.992 L 2.03,3.008" fill="#000000" stroke="#000000" stroke-width="0.04" stroke-linejoin="miter" stroke-linecap="square"/><path d=" M 1.945,2.945 L 2.055,2.945 L 2.055,3.055 L 1.945,3.055 L 1.945,2.945" fill="#000000" stroke="#000000" stroke-width="0.04" stroke-linejoin="miter" stroke-linecap="square"/><path d=" M 2.03,2.008 L 1.87,2.008 L 1.87,0.992 L 2.03,0.992 L 2.03,2.008" fill="#000000" stroke="#000000" stroke-width="0.04" stroke-linejoin="miter" stroke-linecap="square"/><path d=" M 1.945,1.945 L 2.055,1.945 L 2.055,2.055 L 1.945,2.055 L 1.945,1.945" fill="#000000" stroke="#000000" stroke-width="0.04" stroke-linejoin="miter" stroke-linecap="square"/><path d=" M 2.03,1.008 L 1.87,1.008 L 1.87,-0.008 L 2.03,-0.008 L 2.03,1.008" fill="#000000" stroke="#000000" stroke-width="0.04" stroke-linejoin="miter" stroke-linecap="square"/><path d=" M 1.945,0.945 L 2.055,0.945 L 2.055,1.055 L 1.945,1.055 L 1.945,0.945" fill="#000000" stroke="#000000" stroke-width="0.04" stroke-linejoin="miter" stroke-linecap="square"/><path d=" M 1.992,0.03 L 1.992,-0.13 L 3.008,-0.13 L 3.008,0.03 L 1.992,0.03" fill="#000000" stroke="#000000" stroke-width="0.04" stroke-linejoin="miter" stroke-linecap="square"/><path d=" M 1.945,-0.055 L 2.055,-0.055 L 2.055,0.055 L 1.945,0.055 L 1.945,-0.055" fill="#000000" stroke="#000000" stroke-width="0.04" stroke-linejoin="miter" stroke-linecap="square"/><path d=" M 2.992,0.03 L 2.992,-0.13 L 4.008,-0.13 L 4.008,0.03 L 2.992,0.03" fill="#000000" stroke="#000000" stroke-width="0.04" stroke-linejoin="miter" stroke-linecap="square"/><path d=" M 2.945,-0.055 L 3.055,-0.055 L 3.055,0.055 L 2.945,0.055 L 2.945,-0.055" fill="#000000" stroke="#000000" stroke-width="0.04" stroke-linejoin="miter" stroke-linecap="square"/><path d=" M 3.97,-0.008 L 4.13,-0.008 L 4.13,1.008 L 3.97,1.008 L 3.97,-0.008" fill="#000000" stroke="#000000" stroke-width="0.04" stroke-linejoin="miter" stroke-linecap="square"/><path d=" M 3.945,-0.055 L 4.055,-0.055 L 4.055,0.055 L 3.945,0.055 L 3.945,-0.055" fill="#000000" stroke="#000000" stroke-width="0.04" stroke-linejoin="miter" stroke-linecap="square"/><path d=" M 3.97,0.992 L 4.13,0.992 L 4.13,2.008 L 3.97,2.008 L 3.97,0.992" fill="#000000" stroke="#000000" stroke-width="0.04" stroke-linejoin="miter" stroke-linecap="square"/><path d=" M 3.945,0.945 L 4.055,0.945 L 4.055,1.055 L 3.945,1.055 L 3.945,0.945" fill="#000000" stroke="#000000" stroke-width="0.04" stroke-linejoin="miter" stroke-linecap="square"/><path d=" M 3.97,1.992 L 4.13,1.992 L 4.13,3.008 L 3.97,3.008 L 3.97,1.992" fill="#000000" stroke="#000000" stroke-width="0.04" stroke-linejoin="miter" stroke-linecap="square"/><path d=" M 3.945,1.945 L 4.055,1.945 L 4.055,2.055 L 3.945,2.055 L 3.945,1.945" fill="#000000" stroke="#000000" stroke-width="0.04" stroke-linejoin="miter" stroke-linecap="square"/><path d=" M 3.97,2.992 L 4.13,2.992 L 4.13,4.008 L 3.97,4.008 L 3.97,2.992" fill="#000000" stroke="#000000" stroke-width="0.04" stroke-linejoin="miter" stroke-linecap="square"/><path d=" M 3.945,2.945 L 4.055,2.945 L 4.055,3.055 L 3.945,3.055 L 3.945,2.945" fill="#000000" stroke="#000000" stroke-width="0.04" stroke-linejoin="miter" stroke-linecap="square"/><path d=" M 3.97,3.992 L 4.13,3.992 L 4.13,5.008 L 3.97,5.008 L 3.97,3.992" fill="#000000" stroke="#000000" stroke-width="0.04" stroke-linejoin="miter" stroke-linecap="square"/><path d=" M 3.945,3.945 L 4.055,3.945 L 4.055,4.055 L 3.945,4.055 L 3.945,3.945" fill="#000000" stroke="#000000" stroke-width="0.04" stroke-linejoin="miter" stroke-linecap="square"/><path d=" M 3.97,4.992 L 4.13,4.992 L 4.13,6.008 L 3.97,6.008 L 3.97,4.992" fill="#000000" stroke="#000000" stroke-width="0.04" stroke-linejoin="miter" stroke-linecap="square"/><path d=" M 3.945,4.945 L 4.055,4.945 L 4.055,5.055 L 3.945,5.055 L 3.945,4.945" fill="#000000" stroke="#000000" stroke-width="0.04" stroke-linejoin="miter" stroke-linecap="square"/><path d=" M 1.87,5.97 L 2.03,5.97 L 2.03,6.13 L 1.87,6.13 L 1.87,5.97 M 1.87,-0.13 L 2.03,-0.13 L 2.03,0.03 L 1.87,0.03 L 1.87,-0.13 M 3.97,-0.13 L 4.13,-0.13 L 4.13,0.03 L 3.97,0.03 L 3.97,-0.13 M 3.97,5.97 L 4.13,5.97 L 4.13,6.13 L 3.97,6.13 L 3.97,5.97" fill="#000000" stroke="#000000" stroke-width="0.04" stroke-linejoin="miter" stroke-linecap="square"/><path d=" M 1.97,3.03 L 1.97,2.97 L 3.03,2.97 L 3.03,3.03 L 1.97,3.03" fill="#000000" stroke="#000000" stroke-width="0.04" stroke-linejoin="miter" stroke-linecap="square"/><path d=" M 1.945,2.945 L 2.055,2.945 L 2.055,3.055 L 1.945,3.055 L 1.945,2.945" fill="#000000" stroke="#000000" stroke-width="0.04" stroke-linejoin="miter" stroke-linecap="square"/><path d=" M 3,3.03 L 3,2.97 L 3.32,2.97 L 3.32,3.03 L 3,3.03 M 3.68,3.03 L 3.68,2.97 L 4,2.97 L 4,3.03 L 3.68,3.03" fill="#000000" stroke="#000000" stroke-width="0.04" stroke-linejoin="miter" stroke-linecap="square"/><path d=" M 2.945,2.945 L 3.055,2.945 L 3.055,3.055 L 2.945,3.055 L 2.945,2.945" fill="#000000" stroke="#000000" stroke-width="0.04" stroke-linejoin="miter" stroke-linecap="square"/><path d=" M 4.008,5.97 L 4.008,6.13 L 2.992,6.13 L 2.992,5.97 L 4.008,5.97" fill="#B2B2B2"/><path d=" M 3.945,5.945 L 4.055,5.945 L 4.055,6.055 L 3.945,6.055 L 3.945,5.945" fill="#B2B2B2"/><path d=" M 3.008,5.97 L 3.008,6.13 L 1.992,6.13 L 1.992,5.97 L 3.008,5.97" fill="#B2B2B2"/><path d=" M 2.945,5.945 L 3.055,5.945 L 3.055,6.055 L 2.945,6.055 L 2.945,5.945" fill="#B2B2B2"/><path d=" M 2.03,6.008 L 1.87,6.008 L 1.87,4.992 L 2.03,4.992 L 2.03,6.008" fill="#B2B2B2"/><path d=" M 1.945,5.945 L 2.055,5.945 L 2.055,6.055 L 1.945,6.055 L 1.945,5.945" fill="#B2B2B2"/><path d=" M 2.03,5.008 L 1.87,5.008 L 1.87,3.992 L 2.03,3.992 L 2.03,5.008" fill="#B2B2B2"/><path d=" M 1.945,4.945 L 2.055,4.945 L 2.055,5.055 L 1.945,5.055 L 1.945,4.945" fill="#B2B2B2"/><path d=" M 2.03,4.008 L 1.87,4.008 L 1.87,2.992 L 2.03,2.992 L 2.03,4.008" fill="#B2B2B2"/><path d=" M 1.945,3.945 L 2.055,3.945 L 2.055,4.055 L 1.945,4.055 L 1.945,3.945" fill="#B2B2B2"/><path d=" M 2.03,3.008 L 1.87,3.008 L 1.87,1.992 L 2.03,1.992 L 2.03,3.008" fill="#B2B2B2"/><path d=" M 1.945,2.945 L 2.055,2.945 L 2.055,3.055 L 1.945,3.055 L 1.945,2.945" fill="#B2B2B2"/><path d=" M 2.03,2.008 L 1.87,2.008 L 1.87,0.992 L 2.03,0.992 L 2.03,2.008" fill="#B2B2B2"/><path d=" M 1.945,1.945 L 2.055,1.945 L 2.055,2.055 L 1.945,2.055 L 1.945,1.945" fill="#B2B2B2"/><path d=" M 2.03,1.008 L 1.87,1.008 L 1.87,-0.008 L 2.03,-0.008 L 2.03,1.008" fill="#B2B2B2"/><path d=" M 1.945,0.945 L 2.055,0.945 L 2.055,1.055 L 1.945,1.055 L 1.945,0.945" fill="#B2B2B2"/><path d=" M 1.992,0.03 L 1.992,-0.13 L 3.008,-0.13 L 3.008,0.03 L 1.992,0.03" fill="#B2B2B2"/><path d=" M 1.945,-0.055 L 2.055,-0.055 L 2.055,0.055 L 1.945,0.055 L 1.945,-0.055" fill="#B2B2B2"/><path d=" M 2.992,0.03 L 2.992,-0.13 L 4.008,-0.13 L 4.008,0.03 L 2.992,0.03" fill="#B2B2B2"/><path d=" M 2.945,-0.055 L 3.055,-0.055 L 3.055,0.055 L 2.945,0.055 L 2.945,-0.055" fill="#B2B2B2"/><path d=" M 3.97,-0.008 L 4.13,-0.008 L 4.13,1.008 L 3.97,1.008 L 3.97,-0.008" fill="#B2B2B2"/><path d=" M 3.945,-0.055 L 4.055,-0.055 L 4.055,0.055 L 3.945,0.055 L 3.945,-0.055" fill="#B2B2B2"/><path d=" M 3.97,0.992 L 4.13,0.992 L 4.13,2.008 L 3.97,2.008 L 3.97,0.992" fill="#B2B2B2"/><path d=" M 3.945,0.945 L 4.055,0.945 L 4.055,1.055 L 3.945,1.055 L 3.945,0.945" fill="#B2B2B2"/><path d=" M 3.97,1.992 L 4.13,1.992 L 4.13,3.008 L 3.97,3.008 L 3.97,1.992" fill="#B2B2B2"/><path d=" M 3.945,1.945 L 4.055,1.945 L 4.055,2.055 L 3.945,2.055 L 3.945,1.945" fill="#B2B2B2"/><path d=" M 3.97,2.992 L 4.13,2.992 L 4.13,4.008 L 3.97,4.008 L 3.97,2.992" fill="#B2B2B2"/><path d=" M 3.945,2.945 L 4.055,2.945 L 4.055,3.055 L 3.945,3.055 L 3.945,2.945" fill="#B2B2B2"/><path d=" M 3.97,3.992 L 4.13,3.992 L 4.13,5.008 L 3.97,5.008 L 3.97,3.992" fill="#B2B2B2"/><path d=" M 3.945,3.945 L 4.055,3.945 L 4.055,4.055 L 3.945,4.055 L 3.945,3.945" fill="#B2B2B2"/><path d=" M 3.97,4.992 L 4.13,4.992 L 4.13,6.008 L 3.97,6.008 L 3.97,4.992" fill="#B2B2B2"/><path d=" M 3.945,4.945 L 4.055,4.945 L 4.055,5.055 L 3.945,5.055 L 3.945,4.945" fill="#B2B2B2"/><path d=" M 1.87,5.97 L 2.03,5.97 L 2.03,6.13 L 1.87,6.13 L 1.87,5.97 M 1.87,-0.13 L 2.03,-0.13 L 2.03,0.03 L 1.87,0.03 L 1.87,-0.13 M 3.97,-0.13 L 4.13,-0.13 L 4.13,0.03 L 3.97,0.03 L 3.97,-0.13 M 3.97,5.97 L 4.13,5.97 L 4.13,6.13 L 3.97,6.13 L 3.97,5.97" fill="#B2B2B2"/><path d=" M 1.97,3.03 L 1.97,2.97 L 3.03,2.97 L 3.03,3.03 L 1.97,3.03" fill="#B2B2B2"/><path d=" M 1.945,2.945 L 2.055,2.945 L 2.055,3.055 L 1.945,3.055 L 1.945,2.945" fill="#B2B2B2"/><path d=" M 3,3.03 L 3,2.97 L 3.32,2.97 L 3.32,3.03 L 3,3.03 M 3.68,3.03 L 3.68,2.97 L 4,2.97 L 4,3.03 L 3.68,3.03" fill="#B2B2B2"/><path d=" M 2.945,2.945 L 3.055,2.945 L 3.055,3.055 L 2.945,3.055 L 2.945,2.945" fill="#B2B2B2"/></g><g><path d=" M 0,0"/></g><g><path d=" M 0,0"/></g></g><g stroke="#453C35" stroke-width="2"><path d=" M 0,0"/><g transform="translate(3 4.5) rotate(-90 0 0) scale(0.023 0.023)"><path d=" M 0,0"/><text dominant-baseline="text-before-edge" style="font: 28px Share Tech" fill="#E5D6B7" transform="translate(-52.608 -16)">Workshop</text></g><g transform="translate(3.5 1.5) rotate(-90 0 0) scale(0.021 0.021)"><path d=" M 0,0"/><text dominant-baseline="text-before-edge" style="font: 28px Share Tech" fill="#E5D6B7" transform="translate(-30.467 -16)">Cellar</text></g></g><g><path d=" M 0,0"/><g transform="translate(3 4.5) rotate(-90 0 0) scale(0.023 0.023)"><path d=" M 0,0"/><text dominant-baseline="text-before-edge" style="font: 28px Share Tech" fill="#E5D6B7" transform="translate(-52.608 -16)">Workshop</text></g><g transform="translate(3.5 1.5) rotate(-90 0 0) scale(0.021 0.021)"><path d=" M 0,0"/><text dominant-baseline="text-before-edge" style="font: 28px Share Tech" fill="#E5D6B7" transform="translate(-30.467 -16)">Cellar</text></g></g></g><style><![CDATA[@import url("https://fonts.googleapis.com/css2?family=Share+Tech&display=swap");]]></style><defs><linearGradient id="grad1" gradientUnits="userSpaceOnUse" x1="4" y1="3.5" x2="3.5" y2="3.5"><stop offset="0%" stop-color="#333333" stop-opacity="0.5"/><stop offset="25%" stop-color="#333333" stop-opacity="0.28125"/><stop offset="50%" stop-color="#333333" stop-opacity="0.125"/><stop offset="75%" stop-color="#333333" stop-opacity="0.03125"/><stop offset="100%" stop-color="#333333" stop-opacity="0"/></linearGradient><linearGradient id="grad2" gradientUnits="userSpaceOnUse" x1="3.5" y1="6" x2="3.5" y2="5.5"><stop offset="0%" stop-color="#333333" stop-opacity="0.5"/><stop offset="25%" stop-color="#333333" stop-opacity="0.28125"/><stop offset="50%" stop-color="#333333" stop-opacity="0.125"/><stop offset="75%" stop-color="#333333" stop-opacity="0.03125"/><stop offset="100%" stop-color="#333333" stop-opacity="0"/></linearGradient><linearGradient id="grad3" gradientUnits="userSpaceOnUse" x1="2" y1="5.5" x2="2.5" y2="5.5"><stop offset="0%" stop-color="#333333" stop-opacity="0.5"/><stop offset="25%" stop-color="#333333" stop-opacity="0.28125"/><stop offset="50%" stop-color="#333333" stop-opacity="0.125"/><stop offset="75%" stop-color="#333333" stop-opacity="0.03125"/><stop offset="100%" stop-color="#333333" stop-opacity="0"/></linearGradient><linearGradient id="grad4" gradientUnits="userSpaceOnUse" x1="2.5" y1="3" x2="2.5" y2="3.5"><stop offset="0%" stop-color="#333333" stop-opacity="0.5"/><stop offset="25%" stop-color="#333333" stop-opacity="0.28125"/><stop offset="50%" stop-color="#333333" stop-opacity="0.125"/><stop offset="75%" stop-color="#333333" stop-opacity="0.03125"/><stop offset="100%" stop-color="#333333" stop-opacity="0"/></linearGradient><radialGradient id="grad5" gradientUnits="userSpaceOnUse" cx="3.5" cy="3.5" r="0.5"><stop offset="0%" stop-color="#333333" stop-opacity="0"/><stop offset="25%" stop-color="#333333" stop-opacity="0.03125"/><stop offset="50%" stop-color="#333333" stop-opacity="0.125"/><stop offset="75%" stop-color="#333333" stop-opacity="0.28125"/><stop offset="100%" stop-color="#333333" stop-opacity="0.5"/></radialGradient><radialGradient id="grad6" gradientUnits="userSpaceOnUse" cx="3.5" cy="5.5" r="0.5"><stop offset="0%" stop-color="#333333" stop-opacity="0"/><stop offset="25%" stop-color="#333333" stop-opacity="0.03125"/><stop offset="50%" stop-color="#333333" stop-opacity="0.125"/><stop offset="75%" stop-color="#333333" stop-opacity="0.28125"/><stop offset="100%" stop-color="#333333" stop-opacity="0.5"/></radialGradient><radialGradient id="grad7" gradientUnits="userSpaceOnUse" cx="2.5" cy="5.5" r="0.5"><stop offset="0%" stop-color="#333333" stop-opacity="0"/><stop offset="25%" stop-color="#333333" stop-opacity="0.03125"/><stop offset="50%" stop-color="#333333" stop-opacity="0.125"/><stop offset="75%" stop-color="#333333" stop-opacity="0.28125"/><stop offset="100%" stop-color="#333333" stop-opacity="0.5"/></radialGradient><radialGradient id="grad8" gradientUnits="userSpaceOnUse" cx="2.5" cy="3.5" r="0.5"><stop offset="0%" stop-color="#333333" stop-opacity="0"/><stop offset="25%" stop-color="#333333" stop-opacity="0.03125"/><stop offset="50%" stop-color="#333333" stop-opacity="0.125"/><stop offset="75%" stop-color="#333333" stop-opacity="0.28125"/><stop offset="100%" stop-color="#333333" stop-opacity="0.5"/></radialGradient><linearGradient id="grad9" gradientUnits="userSpaceOnUse" x1="2" y1="2.5" x2="2.5" y2="2.5"><stop offset="0%" stop-color="#333333" stop-opacity="0.5"/><stop offset="25%" stop-color="#333333" stop-opacity="0.28125"/><stop offset="50%" stop-color="#333333" stop-opacity="0.125"/><stop offset="75%" stop-color="#333333" stop-opacity="0.03125"/><stop offset="100%" stop-color="#333333" stop-opacity="0"/></linearGradient><linearGradient id="grad10" gradientUnits="userSpaceOnUse" x1="2.5" y1="0" x2="2.5" y2="0.5"><stop offset="0%" stop-color="#333333" stop-opacity="0.5"/><stop offset="25%" stop-color="#333333" stop-opacity="0.28125"/><stop offset="50%" stop-color="#333333" stop-opacity="0.125"/><stop offset="75%" stop-color="#333333" stop-opacity="0.03125"/><stop offset="100%" stop-color="#333333" stop-opacity="0"/></linearGradient><linearGradient id="grad11" gradientUnits="userSpaceOnUse" x1="4" y1="0.5" x2="3.5" y2="0.5"><stop offset="0%" stop-color="#333333" stop-opacity="0.5"/><stop offset="25%" stop-color="#333333" stop-opacity="0.28125"/><stop offset="50%" stop-color="#333333" stop-opacity="0.125"/><stop offset="75%" stop-color="#333333" stop-opacity="0.03125"/><stop offset="100%" stop-color="#333333" stop-opacity="0"/></linearGradient><linearGradient id="grad12" gradientUnits="userSpaceOnUse" x1="3.5" y1="3" x2="3.5" y2="2.5"><stop offset="0%" stop-color="#333333" stop-opacity="0.5"/><stop offset="25%" stop-color="#333333" stop-opacity="0.28125"/><stop offset="50%" stop-color="#333333" stop-opacity="0.125"/><stop offset="75%" stop-color="#333333" stop-opacity="0.03125"/><stop offset="100%" stop-color="#333333" stop-opacity="0"/></linearGradient><radialGradient id="grad13" gradientUnits="userSpaceOnUse" cx="2.5" cy="2.5" r="0.5"><stop offset="0%" stop-color="#333333" stop-opacity="0"/><stop offset="25%" stop-color="#333333" stop-opacity="0.03125"/><stop offset="50%" stop-color="#333333" stop-opacity="0.125"/><stop offset="75%" stop-color="#333333" stop-opacity="0.28125"/><stop offset="100%" stop-color="#333333" stop-opacity="0.5"/></radialGradient><radialGradient id="grad14" gradientUnits="userSpaceOnUse" cx="2.5" cy="0.5" r="0.5"><stop offset="0%" stop-color="#333333" stop-opacity="0"/><stop offset="25%" stop-color="#333333" stop-opacity="0.03125"/><stop offset="50%" stop-color="#333333" stop-opacity="0.125"/><stop offset="75%" stop-color="#333333" stop-opacity="0.28125"/><stop offset="100%" stop-color="#333333" stop-opacity="0.5"/></radialGradient><radialGradient id="grad15" gradientUnits="userSpaceOnUse" cx="3.5" cy="0.5" r="0.5"><stop offset="0%" stop-color="#333333" stop-opacity="0"/><stop offset="25%" stop-color="#333333" stop-opacity="0.03125"/><stop offset="50%" stop-color="#333333" stop-opacity="0.125"/><stop offset="75%" stop-color="#333333" stop-opacity="0.28125"/><stop offset="100%" stop-color="#333333" stop-opacity="0.5"/></radialGradient><radialGradient id="grad16" gradientUnits="userSpaceOnUse" cx="3.5" cy="2.5" r="0.5"><stop offset="0%" stop-color="#333333" stop-opacity="0"/><stop offset="25%" stop-color="#333333" stop-opacity="0.03125"/><stop offset="50%" stop-color="#333333" stop-opacity="0.125"/><stop offset="75%" stop-color="#333333" stop-opacity="0.28125"/><stop offset="100%" stop-color="#333333" stop-opacity="0.5"/></radialGradient><radialGradient id="grad17" gradientUnits="userSpaceOnUse" cx="3.5" cy="3" r="1"><stop offset="0%" stop-color="#FFFFFF"/><stop offset="20%" stop-color="#FFFFFF" stop-opacity="0.896"/><stop offset="40%" stop-color="#FFFFFF" stop-opacity="0.6479999999999999"/><stop offset="60%" stop-color="#FFFFFF" stop-opacity="0.352"/><stop offset="80%" stop-color="#FFFFFF" stop-opacity="0.10399999999999987"/><stop offset="100%" stop-color="#FFFFFF" stop-opacity="0"/></radialGradient><radialGradient id="grad18" gradientUnits="userSpaceOnUse" cx="2" cy="6" r="1.732"><stop offset="0%" stop-color="#FFFFFF" stop-opacity="0.43923048454132635"/><stop offset="20%" stop-color="#FFFFFF" stop-opacity="0.3935505141490284"/><stop offset="40%" stop-color="#FFFFFF" stop-opacity="0.28462135398277943"/><stop offset="60%" stop-color="#FFFFFF" stop-opacity="0.15460913055854686"/><stop offset="80%" stop-color="#FFFFFF" stop-opacity="0.04567997039229788"/><stop offset="100%" stop-color="#FFFFFF" stop-opacity="0"/></radialGradient><radialGradient id="grad19" gradientUnits="userSpaceOnUse" cx="2" cy="0" r="1.732"><stop offset="0%" stop-color="#FFFFFF" stop-opacity="0.43923048454132635"/><stop offset="20%" stop-color="#FFFFFF" stop-opacity="0.3935505141490284"/><stop offset="40%" stop-color="#FFFFFF" stop-opacity="0.28462135398277943"/><stop offset="60%" stop-color="#FFFFFF" stop-opacity="0.15460913055854686"/><stop offset="80%" stop-color="#FFFFFF" stop-opacity="0.04567997039229788"/><stop offset="100%" stop-color="#FFFFFF" stop-opacity="0"/></radialGradient><radialGradient id="grad20" gradientUnits="userSpaceOnUse" cx="2" cy="6" r="1.732"><stop offset="0%" stop-color="#E3BA47" stop-opacity="0.43923048454132635"/><stop offset="20%" stop-color="#E5B242" stop-opacity="0.3935505141490284"/><stop offset="40%" stop-color="#EC9E36" stop-opacity="0.28462135398277943"/><stop offset="60%" stop-color="#F3832B" stop-opacity="0.15460913055854686"/><stop offset="80%" stop-color="#F86A26" stop-opacity="0.04567997039229788"/><stop offset="100%" stop-color="#FA5F24" stop-opacity="0"/></radialGradient><radialGradient id="grad21" gradientUnits="userSpaceOnUse" cx="2" cy="0" r="1.732"><stop offset="0%" stop-color="#E3BA47" stop-opacity="0.43923048454132635"/><stop offset="20%" stop-color="#E5B242" stop-opacity="0.3935505141490284"/><stop offset="40%" stop-color="#EC9E36" stop-opacity="0.28462135398277943"/><stop offset="60%" stop-color="#F3832B" stop-opacity="0.15460913055854686"/><stop offset="80%" stop-color="#F86A26" stop-opacity="0.04567997039229788"/><stop offset="100%" stop-color="#FA5F24" stop-opacity="0"/></radialGradient></defs></svg>