<?xml version="1.0" encoding="UTF-8" standalone="no"?><svg width="1100" height="1200" xmlns="http://www.w3.org/2000/svg" stroke-linejoin="round" stroke-linecap="round" fill-rule="evenodd" fill="none"><rect x="0" y="0" width="1100" height="1200" fill="#F2EDDE"/><g transform="scale(100 100) translate(3 3)"><path d=" M 0,0"/><g><path d=" M 0,0"/></g><g><path d=" M 0,0"/><g><path d=" M 0,0"/><path d=" M 1,2 L 0,2 L 0,1 L 1,1 L 2,1 L 3,1 L 4,1 L 5,1 L 5,2 L 4,2 L 3,2 L 2,2 L 1,2" fill="#8B796B" stroke="#8B796B" stroke-width="0.02"/><path d=" M 2,4 L 1,4 L 0,4 L 0,3 L 0,2 L 1,2 L 2,2 L 3,2 L 4,2 L 4,3 L 4,4 L 3,4 L 2,4" fill="#8B796B" stroke="#8B796B" stroke-width="0.02"/><path d=" M 4,3 L 4,2 L 5,2 L 5,3 L 5,4 L 5,5 L 5,6 L 4,6 L 3,6 L 3,5 L 2,5 L 1,5 L 1,4 L 2,4 L 3,4 L 4,4 L 4,3" fill="#8B796B" stroke="#8B796B" stroke-width="0.02"/><path d=" M 1,1 L 0,1 L 0,0 L 1,0 L 2,0 L 3,0 L 3,1 L 2,1 L 1,1" fill="#8B796B" stroke="#8B796B" stroke-width="0.02"/><path d=" M 5,5.3 Q 5.188,5.3 5.35,5.394 Q 5.512,5.488 5.606,5.65 Q 5.7,5.812 5.7,6 Q 5.7,6.188 5.606,6.35 Q 5.512,6.512 5.35,6.606 Q 5.188,6.7 5,6.7 Q 4.812,6.7 4.65,6.606 Q 4.488,6.512 4.394,6.35 Q 4.3,6.188 4.3,6 L 5,6" fill="#A58F7D"/><path d=" M 5,6 L 4.3,6 M 5,6 L 4.33,6.203 M 5,6 L 4.418,6.389 M 5,6 L 4.556,6.541 M 5,6 L 4.732,6.647 M 5,6 L 4.931,6.697 M 5,6 L 5.137,6.687 M 5,6 L 5.33,6.617 M 5,6 L 5.495,6.495 M 5,6 L 5.617,6.33 M 5,6 L 5.687,6.137 M 5,6 L 5.697,5.931 M 5,6 L 5.647,5.732 M 5,6 L 5.541,5.556 M 5,6 L 5.389,5.418 M 5,6 L 5.203,5.33 M 5,6 L 5,5.3" stroke="#000000" stroke-width="0.02"/><path d=" M 4.047,6.55 L 4.11,6.658 L 4.143,6.712 L 4.169,6.75 L 4.194,6.782 L 4.218,6.81 L 4.243,6.836 L 4.27,6.861 L 4.298,6.884 L 4.327,6.907 L 4.358,6.929 L 4.388,6.949 L 4.419,6.969 L 4.451,6.987 L 4.484,7.004 L 4.517,7.021 L 4.551,7.036 L 4.585,7.05 L 4.62,7.063 L 4.655,7.073 L 4.69,7.082 L 4.726,7.089 L 4.766,7.095 L 4.811,7.098 L 4.876,7.1 L 5,7.1 M 5,7.1 L 4.919,7.041 M 5,7.1 L 4.919,7.159 M 4.067,6.55 Q 4.067,6.558 4.062,6.564 Q 4.056,6.57 4.047,6.57 L 4.047,6.57 Q 4.039,6.57 4.033,6.564 Q 4.027,6.558 4.027,6.55 L 4.027,6.55 Q 4.027,6.542 4.033,6.536 Q 4.039,6.53 4.047,6.53 L 4.047,6.53 Q 4.056,6.53 4.062,6.536 Q 4.067,6.542 4.067,6.55 L 4.067,6.55" stroke="#000000" stroke-width="0.02"/><path d=" M 5,3.125 L 5,3.875 L 5.45,3.875 L 5.45,3.125 L 5,3.125" fill="#8B796B"/><path d=" M 5.15,3.875 L 5.25,3.875 L 5.25,3.125 L 5.15,3.125 M 5.25,3.875 L 5.35,3.875 L 5.35,3.125 L 5.25,3.125 M 5.35,3.875 L 5.45,3.875 L 5.45,3.125 L 5.35,3.125" stroke="#000000" stroke-width="0.02"/><path d=" M 6.15,3.5 L 5.65,3.5 M 5.65,3.5 L 5.731,3.559 M 5.65,3.5 L 5.731,3.441" stroke="#000000" stroke-width="0.02"/></g><g><path d=" M 0,0"/><path d=" M 1,0 L 1,0.03 M 1,0.1 L 1,0.13 M 1,0.2 L 1,0.23 M 1,0.3 L 1,0.33 M 1,0.4 L 1,0.43 M 1,0.5 L 1,0.53 M 1,0.6 L 1,0.63 M 1,0.7 L 1,0.73 M 1,0.8 L 1,0.83 M 1,0.9 L 1,0.93 M 2,0 L 2,0.03 M 2,0.1 L 2,0.13 M 2,0.2 L 2,0.23 M 2,0.3 L 2,0.33 M 2,0.4 L 2,0.43 M 2,0.5 L 2,0.53 M 2,0.6 L 2,0.63 M 2,0.7 L 2,0.73 M 2,0.8 L 2,0.83 M 2,0.9 L 2,0.93 M 0,1 L 0.03,1 M 0.1,1 L 0.13,1 M 0.2,1 L 0.23,1 M 0.3,1 L 0.33,1 M 0.4,1 L 0.43,1 M 0.5,1 L 0.53,1 M 0.6,1 L 0.63,1 M 0.7,1 L 0.73,1 M 0.8,1 L 0.83,1 M 0.9,1 L 0.93,1 M 1,1 L 1,1.03 M 1,1.1 L 1,1.13 M 1,1.2 L 1,1.23 M 1,1.3 L 1,1.33 M 1,1.4 L 1,1.43 M 1,1.5 L 1,1.53 M 1,1.6 L 1,1.63 M 1,1.7 L 1,1.73 M 1,1.8 L 1,1.83 M 1,1.9 L 1,1.93 M 1,1 L 1.03,1 M 1.1,1 L 1.13,1 M 1.2,1 L 1.23,1 M 1.3,1 L 1.33,1 M 1.4,1 L 1.43,1 M 1.5,1 L 1.53,1 M 1.6,1 L 1.63,1 M 1.7,1 L 1.73,1 M 1.8,1 L 1.83,1 M 1.9,1 L 1.93,1 M 2,1 L 2,1.03 M 2,1.1 L 2,1.13 M 2,1.2 L 2,1.23 M 2,1.3 L 2,1.33 M 2,1.4 L 2,1.43 M 2,1.5 L 2,1.53 M 2,1.6 L 2,1.63 M 2,1.7 L 2,1.73 M 2,1.8 L 2,1.83 M 2,1.9 L 2,1.93 M 2,1 L 2.03,1 M 2.1,1 L 2.13,1 M 2.2,1 L 2.23,1 M 2.3,1 L 2.33,1 M 2.4,1 L 2.43,1 M 2.5,1 L 2.53,1 M 2.6,1 L 2.63,1 M 2.7,1 L 2.73,1 M 2.8,1 L 2.83,1 M 2.9,1 L 2.93,1 M 3,1 L 3,1 M 3,1 L 3,1.03 M 3,1.1 L 3,1.13 M 3,1.2 L 3,1.23 M 3,1.3 L 3,1.33 M 3,1.4 L 3,1.43 M 3,1.5 L 3,1.53 M 3,1.6 L 3,1.63 M 3,1.7 L 3,1.73 M 3,1.8 L 3,1.83 M 3,1.9 L 3,1.93 M 4,1 L 4,1.03 M 4,1.1 L 4,1.13 M 4,1.2 L 4,1.23 M 4,1.3 L 4,1.33 M 4,1.4 L 4,1.43 M 4,1.5 L 4,1.53 M 4,1.6 L 4,1.63 M 4,1.7 L 4,1.73 M 4,1.8 L 4,1.83 M 4,1.9 L 4,1.93 M 0,2 L 0.03,2 M 0.1,2 L 0.13,2 M 0.2,2 L 0.23,2 M 0.3,2 L 0.33,2 M 0.4,2 L 0.43,2 M 0.5,2 L 0.53,2 M 0.6,2 L 0.63,2 M 0.7,2 L 0.73,2 M 0.8,2 L 0.83,2 M 0.9,2 L 0.93,2 M 1,2 L 1,2.03 M 1,2.1 L 1,2.13 M 1,2.2 L 1,2.23 M 1,2.3 L 1,2.33 M 1,2.4 L 1,2.43 M 1,2.5 L 1,2.53 M 1,2.6 L 1,2.63 M 1,2.7 L 1,2.73 M 1,2.8 L 1,2.83 M 1,2.9 L 1,2.93 M 1,3 L 1,3 M 1,2 L 1.03,2 M 1.1,2 L 1.13,2 M 1.2,2 L 1.23,2 M 1.3,2 L 1.33,2 M 1.4,2 L 1.43,2 M 1.5,2 L 1.53,2 M 1.6,2 L 1.63,2 M 1.7,2 L 1.73,2 M 1.8,2 L 1.83,2 M 1.9,2 L 1.93,2 M 2,2 L 2,2.03 M 2,2.1 L 2,2.13 M 2,2.2 L 2,2.23 M 2,2.3 L 2,2.33 M 2,2.4 L 2,2.43 M 2,2.5 L 2,2.53 M 2,2.6 L 2,2.63 M 2,2.7 L 2,2.73 M 2,2.8 L 2,2.83 M 2,2.9 L 2,2.93 M 2,3 L 2,3 M 2,2 L 2.03,2 M 2.1,2 L 2.13,2 M 2.2,2 L 2.23,2 M 2.3,2 L 2.33,2 M 2.4,2 L 2.43,2 M 2.5,2 L 2.53,2 M 2.6,2 L 2.63,2 M 2.7,2 L 2.73,2 M 2.8,2 L 2.83,2 M 2.9,2 L 2.93,2 M 3,2 L 3,2 M 3,2 L 3,2.03 M 3,2.1 L 3,2.13 M 3,2.2 L 3,2.23 M 3,2.3 L 3,2.33 M 3,2.4 L 3,2.43 M 3,2.5 L 3,2.53 M 3,2.6 L 3,2.63 M 3,2.7 L 3,2.73 M 3,2.8 L 3,2.83 M 3,2.9 L 3,2.93 M 3,3 L 3,3 M 3,2 L 3.03,2 M 3.1,2 L 3.13,2 M 3.2,2 L 3.23,2 M 3.3,2 L 3.33,2 M 3.4,2 L 3.43,2 M 3.5,2 L 3.53,2 M 3.6,2 L 3.63,2 M 3.7,2 L 3.73,2 M 3.8,2 L 3.83,2 M 3.9,2 L 3.93,2 M 4,2 L 4,2 M 4,2 L 4,2.03 M 4,2.1 L 4,2.13 M 4,2.2 L 4,2.23 M 4,2.3 L 4,2.33 M 4,2.4 L 4,2.43 M 4,2.5 L 4,2.53 M 4,2.6 L 4,2.63 M 4,2.7 L 4,2.73 M 4,2.8 L 4,2.83 M 4,2.9 L 4,2.93 M 4,3 L 4,3 M 4,2 L 4.03,2 M 4.1,2 L 4.13,2 M 4.2,2 L 4.23,2 M 4.3,2 L 4.33,2 M 4.4,2 L 4.43,2 M 4.5,2 L 4.53,2 M 4.6,2 L 4.63,2 M 4.7,2 L 4.73,2 M 4.8,2 L 4.83,2 M 4.9,2 L 4.93,2 M 0,3 L 0.03,3 M 0.1,3 L 0.13,3 M 0.2,3 L 0.23,3 M 0.3,3 L 0.33,3 M 0.4,3 L 0.43,3 M 0.5,3 L 0.53,3 M 0.6,3 L 0.63,3 M 0.7,3 L 0.73,3 M 0.8,3 L 0.83,3 M 0.9,3 L 0.93,3 M 1,3 L 1,3.03 M 1,3.1 L 1,3.13 M 1,3.2 L 1,3.23 M 1,3.3 L 1,3.33 M 1,3.4 L 1,3.43 M 1,3.5 L 1,3.53 M 1,3.6 L 1,3.63 M 1,3.7 L 1,3.73 M 1,3.8 L 1,3.83 M 1,3.9 L 1,3.93 M 1,4 L 1,4 M 1,3 L 1.03,3 M 1.1,3 L 1.13,3 M 1.2,3 L 1.23,3 M 1.3,3 L 1.33,3 M 1.4,3 L 1.43,3 M 1.5,3 L 1.53,3 M 1.6,3 L 1.63,3 M 1.7,3 L 1.73,3 M 1.8,3 L 1.83,3 M 1.9,3 L 1.93,3 M 2,3 L 2,3.03 M 2,3.1 L 2,3.13 M 2,3.2 L 2,3.23 M 2,3.3 L 2,3.33 M 2,3.4 L 2,3.43 M 2,3.5 L 2,3.53 M 2,3.6 L 2,3.63 M 2,3.7 L 2,3.73 M 2,3.8 L 2,3.83 M 2,3.9 L 2,3.93 M 2,4 L 2,4 M 2,3 L 2.03,3 M 2.1,3 L 2.13,3 M 2.2,3 L 2.23,3 M 2.3,3 L 2.33,3 M 2.4,3 L 2.43,3 M 2.5,3 L 2.53,3 M 2.6,3 L 2.63,3 M 2.7,3 L 2.73,3 M 2.8,3 L 2.83,3 M 2.9,3 L 2.93,3 M 3,3 L 3,3 M 3,3 L 3,3.03 M 3,3.1 L 3,3.13 M 3,3.2 L 3,3.23 M 3,3.3 L 3,3.33 M 3,3.4 L 3,3.43 M 3,3.5 L 3,3.53 M 3,3.6 L 3,3.63 M 3,3.7 L 3,3.73 M 3,3.8 L 3,3.83 M 3,3.9 L 3,3.93 M 3,4 L 3,4 M 3,3 L 3.03,3 M 3.1,3 L 3.13,3 M 3.2,3 L 3.23,3 M 3.3,3 L 3.33,3 M 3.4,3 L 3.43,3 M 3.5,3 L 3.53,3 M 3.6,3 L 3.63,3 M 3.7,3 L 3.73,3 M 3.8,3 L 3.83,3 M 3.9,3 L 3.93,3 M 4,3 L 4,3 M 4,3 L 4,3.03 M 4,3.1 L 4,3.13 M 4,3.2 L 4,3.23 M 4,3.3 L 4,3.33 M 4,3.4 L 4,3.43 M 4,3.5 L 4,3.53 M 4,3.6 L 4,3.63 M 4,3.7 L 4,3.73 M 4,3.8 L 4,3.83 M 4,3.9 L 4,3.93 M 4,4 L 4,4 M 4,3 L 4.03,3 M 4.1,3 L 4.13,3 M 4.2,3 L 4.23,3 M 4.3,3 L 4.33,3 M 4.4,3 L 4.43,3 M 4.5,3 L 4.53,3 M 4.6,3 L 4.63,3 M 4.7,3 L 4.73,3 M 4.8,3 L 4.83,3 M 4.9,3 L 4.93,3 M 1,4 L 1.03,4 M 1.1,4 L 1.13,4 M 1.2,4 L 1.23,4 M 1.3,4 L 1.33,4 M 1.4,4 L 1.43,4 M 1.5,4 L 1.53,4 M 1.6,4 L 1.63,4 M 1.7,4 L 1.73,4 M 1.8,4 L 1.83,4 M 1.9,4 L 1.93,4 M 2,4 L 2,4.03 M 2,4.1 L 2,4.13 M 2,4.2 L 2,4.23 M 2,4.3 L 2,4.33 M 2,4.4 L 2,4.43 M 2,4.5 L 2,4.53 M 2,4.6 L 2,4.63 M 2,4.7 L 2,4.73 M 2,4.8 L 2,4.83 M 2,4.9 L 2,4.93 M 2,4 L 2.03,4 M 2.1,4 L 2.13,4 M 2.2,4 L 2.23,4 M 2.3,4 L 2.33,4 M 2.4,4 L 2.43,4 M 2.5,4 L 2.53,4 M 2.6,4 L 2.63,4 M 2.7,4 L 2.73,4 M 2.8,4 L 2.83,4 M 2.9,4 L 2.93,4 M 3,4 L 3,4 M 3,4 L 3,4.03 M 3,4.1 L 3,4.13 M 3,4.2 L 3,4.23 M 3,4.3 L 3,4.33 M 3,4.4 L 3,4.43 M 3,4.5 L 3,4.53 M 3,4.6 L 3,4.63 M 3,4.7 L 3,4.73 M 3,4.8 L 3,4.83 M 3,4.9 L 3,4.93 M 3,4 L 3.03,4 M 3.1,4 L 3.13,4 M 3.2,4 L 3.23,4 M 3.3,4 L 3.33,4 M 3.4,4 L 3.43,4 M 3.5,4 L 3.53,4 M 3.6,4 L 3.63,4 M 3.7,4 L 3.73,4 M 3.8,4 L 3.83,4 M 3.9,4 L 3.93,4 M 4,4 L 4,4 M 4,4 L 4,4.03 M 4,4.1 L 4,4.13 M 4,4.2 L 4,4.23 M 4,4.3 L 4,4.33 M 4,4.4 L 4,4.43 M 4,4.5 L 4,4.53 M 4,4.6 L 4,4.63 M 4,4.7 L 4,4.73 M 4,4.8 L 4,4.83 M 4,4.9 L 4,4.93 M 4,4 L 4.03,4 M 4.1,4 L 4.13,4 M 4.2,4 L 4.23,4 M 4.3,4 L 4.33,4 M 4.4,4 L 4.43,4 M 4.5,4 L 4.53,4 M 4.6,4 L 4.63,4 M 4.7,4 L 4.73,4 M 4.8,4 L 4.83,4 M 4.9,4 L 4.93,4 M 3,5 L 3.03,5 M 3.1,5 L 3.13,5 M 3.2,5 L 3.23,5 M 3.3,5 L 3.33,5 M 3.4,5 L 3.43,5 M 3.5,5 L 3.53,5 M 3.6,5 L 3.63,5 M 3.7,5 L 3.73,5 M 3.8,5 L 3.83,5 M 3.9,5 L 3.93,5 M 4,5 L 4,5 M 4,5 L 4,5.03 M 4,5.1 L 4,5.13 M 4,5.2 L 4,5.23 M 4,5.3 L 4,5.33 M 4,5.4 L 4,5.43 M 4,5.5 L 4,5.53 M 4,5.6 L 4,5.63 M 4,5.7 L 4,5.73 M 4,5.8 L 4,5.83 M 4,5.9 L 4,5.93 M 4,5 L 4.03,5 M 4.1,5 L 4.13,5 M 4.2,5 L 4.23,5 M 4.3,5 L 4.33,5 M 4.4,5 L 4.43,5 M 4.5,5 L 4.53,5 M 4.6,5 L 4.63,5 M 4.7,5 L 4.73,5 M 4.8,5 L 4.83,5 M 4.9,5 L 4.93,5" stroke="#000000" stroke-width="0.02" stroke-opacity="0.4"/></g><g><path d=" M 0,0"/><path d=" M 0,3.65 L 0,3.383 L 0.43,3.383 L 0.43,3.65 L 0,3.65 M 0.776,3.395 L 0.796,3.499 L 0.776,3.603 L 0.717,3.692 L 0.629,3.75 L 0.525,3.771 L 0.421,3.75 L 0.333,3.692 L 0.274,3.603 L 0.253,3.499 L 0.274,3.395 L 0.333,3.307 L 0.421,3.248 L 0.525,3.228 L 0.629,3.248 L 0.717,3.307 L 0.776,3.395" stroke="#000000" stroke-width="0.04" stroke-opacity="0.4"/><path d=" M 0,3.65 L 0,3.383 L 0.43,3.383 L 0.43,3.65 L 0,3.65" fill="#B29C85"/><path d=" M 0.776,3.395 L 0.796,3.499 L 0.776,3.603 L 0.717,3.692 L 0.629,3.75 L 0.525,3.771 L 0.421,3.75 L 0.333,3.692 L 0.274,3.603 L 0.253,3.499 L 0.274,3.395 L 0.333,3.307 L 0.421,3.248 L 0.525,3.228 L 0.629,3.248 L 0.717,3.307 L 0.776,3.395" fill="#B29C85"/><path d=" M 0.388,3.607 L 0.042,3.607 L 0.042,3.425 L 0.388,3.425 L 0.388,3.607" stroke="#000000" stroke-width="0.02" stroke-opacity="0.4"/><path d=" M 1.609,4.5 L 1.609,4.24 L 2.07,4.24 L 2.07,4.5 L 1.609,4.5 M 1.745,5 L 1.745,4.432 L 2.096,4.432 L 2.096,5 L 1.745,5 M 2.057,4.51 L 2.057,4.107 L 2.263,4.107 L 2.263,4.51 L 2.057,4.51" stroke="#000000" stroke-width="0.04" stroke-opacity="0.4"/><path d=" M 1.609,4.5 L 1.609,4.24 L 2.07,4.24 L 2.07,4.5 L 1.609,4.5" fill="#B29C85"/><path d=" M 1.745,5 L 1.745,4.432 L 2.096,4.432 L 2.096,5 L 1.745,5" fill="#B29C85"/><path d=" M 2.057,4.51 L 2.057,4.107 L 2.263,4.107 L 2.263,4.51 L 2.057,4.51" fill="#B29C85"/><path d=" M 2.027,4.457 L 1.652,4.457 L 1.652,4.283 L 2.027,4.283 L 2.027,4.457" stroke="#000000" stroke-width="0.02" stroke-opacity="0.4"/><path d=" M 3,5.131 L 3,4.891 L 3.37,4.891 L 3.37,5.131 L 3,5.131" stroke="#000000" stroke-width="0.04" stroke-opacity="0.4"/><path d=" M 3,5.131 L 3,4.891 L 3.37,4.891 L 3.37,5.131 L 3,5.131" fill="#B29C85"/><path d=" M 3.333,5.094 L 3.037,5.094 L 3.037,4.928 L 3.333,4.928 L 3.333,5.094" stroke="#000000" stroke-width="0.02" stroke-opacity="0.4"/><path d=" M 3.412,5.68 L 3.403,5.603 L 3.544,5.586 L 3.553,5.663 L 3.412,5.68" stroke="#000000" stroke-width="0.04" stroke-opacity="0.4"/><path d=" M 3.412,5.68 L 3.403,5.603 L 3.544,5.586 L 3.553,5.663 L 3.412,5.68" fill="#B29C85"/><path d=" M 3.538,5.652 L 3.423,5.665 L 3.417,5.614 L 3.532,5.601 L 3.538,5.652" stroke="#000000" stroke-width="0.02" stroke-opacity="0.4"/><path d=" M 4.545,5.187 L 4.545,4.791 L 4.813,4.791 L 4.813,5.187 L 4.545,5.187 M 4.359,5.186 L 4.359,4.623 L 4.661,4.623 L 4.661,5.186 L 4.359,5.186 M 4.871,4.895 L 4.877,4.922 L 4.871,4.949 L 4.856,4.972 L 4.833,4.987 L 4.806,4.993 L 4.779,4.987 L 4.756,4.972 L 4.74,4.949 L 4.735,4.922 L 4.74,4.895 L 4.756,4.872 L 4.779,4.856 L 4.806,4.851 L 4.833,4.856 L 4.856,4.872 L 4.871,4.895" stroke="#000000" stroke-width="0.04" stroke-opacity="0.4"/><path d=" M 4.545,5.187 L 4.545,4.791 L 4.813,4.791 L 4.813,5.187 L 4.545,5.187" fill="#B29C85"/><path d=" M 4.359,5.186 L 4.359,4.623 L 4.661,4.623 L 4.661,5.186 L 4.359,5.186" fill="#B29C85"/><path d=" M 4.871,4.895 L 4.877,4.922 L 4.871,4.949 L 4.856,4.972 L 4.833,4.987 L 4.806,4.993 L 4.779,4.987 L 4.756,4.972 L 4.74,4.949 L 4.735,4.922 L 4.74,4.895 L 4.756,4.872 L 4.779,4.856 L 4.806,4.851 L 4.833,4.856 L 4.856,4.872 L 4.871,4.895" fill="#B29C85"/><path d=" M 4.772,5.147 L 4.586,5.147 L 4.586,4.832 L 4.772,4.832 L 4.772,5.147" stroke="#000000" stroke-width="0.02" stroke-opacity="0.4"/><path d=" M 1.416,0.681 L 1.416,0 L 1.841,0 L 1.841,0.681 L 1.416,0.681" stroke="#000000" stroke-width="0.04" stroke-opacity="0.4"/><path d=" M 1.416,0.681 L 1.416,0 L 1.841,0 L 1.841,0.681 L 1.416,0.681" fill="#B29C85"/><path d=" M 1.774,0.614 L 1.483,0.614 L 1.483,0.067 L 1.774,0.067 L 1.774,0.614" stroke="#000000" stroke-width="0.02" stroke-opacity="0.4"/><path d=" M 2.75,0.508 L 2.75,0.039 L 3,0.039 L 3,0.508 L 2.75,0.508" stroke="#000000" stroke-width="0.04" stroke-opacity="0.4"/><path d=" M 2.75,0.508 L 2.75,0.039 L 3,0.039 L 3,0.508 L 2.75,0.508" fill="#B29C85"/><path d=" M 2.957,0.465 L 2.793,0.465 L 2.793,0.082 L 2.957,0.082 L 2.957,0.465" stroke="#000000" stroke-width="0.02" stroke-opacity="0.4"/></g><g><path d=" M 0,0"/></g><g style="mix-blend-mode: multiply"><path d=" M 0,0"/><path d=" M 0.5,1.5 L 0,1.5 L 0,1.5 L 0.5,1.5 L 0.5,1.5" fill="url(#grad1)"/><path d=" M 0.5,1.5 L 0.5,1 L 4.5,1 L 4.5,1.5 L 0.5,1.5" fill="url(#grad2)"/><path d=" M 4.5,1.5 L 5,1.5 L 5,1.5 L 4.5,1.5 L 4.5,1.5" fill="url(#grad3)"/><path d=" M 4.5,1.5 L 4.5,2 L 0.5,2 L 0.5,1.5 L 4.5,1.5" fill="url(#grad4)"/><path d=" M 0.5,2 L 0,2 L 0,1.5 L 0.5,1.5 L 0.5,2" fill="url(#grad5)"/><path d=" M 0,1.5 L 0,1 L 0.5,1 L 0.5,1.5 L 0,1.5" fill="url(#grad6)"/><path d=" M 4.5,1 L 5,1 L 5,1.5 L 4.5,1.5 L 4.5,1" fill="url(#grad7)"/><path d=" M 5,1.5 L 5,2 L 4.5,2 L 4.5,1.5 L 5,1.5" fill="url(#grad8)"/><path d=" M 0.5,3.5 L 0,3.5 L 0,2.5 L 0.5,2.5 L 0.5,3.5" fill="url(#grad9)"/><path d=" M 0.5,2.5 L 0.5,2 L 3.5,2 L 3.5,2.5 L 0.5,2.5" fill="url(#grad10)"/><path d=" M 3.5,2.5 L 4,2.5 L 4,3.5 L 3.5,3.5 L 3.5,2.5" fill="url(#grad11)"/><path d=" M 3.5,3.5 L 3.5,4 L 0.5,4 L 0.5,3.5 L 3.5,3.5" fill="url(#grad12)"/><path d=" M 0.5,4 L 0,4 L 0,3.5 L 0.5,3.5 L 0.5,4" fill="url(#grad13)"/><path d=" M 0,2.5 L 0,2 L 0.5,2 L 0.5,2.5 L 0,2.5" fill="url(#grad14)"/><path d=" M 3.5,2 L 4,2 L 4,2.5 L 3.5,2.5 L 3.5,2" fill="url(#grad15)"/><path d=" M 4,3.5 L 4,4 L 3.5,4 L 3.5,3.5 L 4,3.5" fill="url(#grad16)"/><path d=" M 4.5,2.5 L 4.5,2 L 4.5,2 L 4.5,2.5 L 4.5,2.5" fill="url(#grad17)"/><path d=" M 4.5,2.5 L 5,2.5 L 5,5.5 L 4.5,5.5 L 4.5,2.5" fill="url(#grad18)"/><path d=" M 4.5,5.5 L 4.5,6 L 3.5,6 L 3.5,5.5 L 4.5,5.5" fill="url(#grad19)"/><path d=" M 3.5,5.5 L 3,5.5 L 3,5 L 3.5,5 L 3.5,5.5" fill="url(#grad20)"/><path d=" M 3,4.5 L 3,5 L 1.5,5 L 1.5,4.5 L 3,4.5" fill="url(#grad21)"/><path d=" M 1.5,4.5 L 1,4.5 L 1,4.5 L 1.5,4.5 L 1.5,4.5" fill="url(#grad22)"/><path d=" M 1.5,4.5 L 1.5,4 L 4,4 L 4,4.5 L 1.5,4.5" fill="url(#grad23)"/><path d=" M 4.5,4 L 4,4 L 4,2.5 L 4.5,2.5 L 4.5,4" fill="url(#grad24)"/><path d=" M 4,2.5 L 4,2 L 4.5,2 L 4.5,2.5 L 4,2.5" fill="url(#grad25)"/><path d=" M 4.5,2 L 5,2 L 5,2.5 L 4.5,2.5 L 4.5,2" fill="url(#grad26)"/><path d=" M 5,5.5 L 5,6 L 4.5,6 L 4.5,5.5 L 5,5.5" fill="url(#grad27)"/><path d=" M 3.5,6 L 3,6 L 3,5.5 L 3.5,5.5 L 3.5,6" fill="url(#grad28)"/><path d=" M 3.5,5 L 3,5 L 3,4.5 L 3.5,4.5 L 3.5,4.5 L 3.5,5" fill="url(#grad29)"/><path d=" M 1.5,5 L 1,5 L 1,4.5 L 1.5,4.5 L 1.5,5" fill="url(#grad30)"/><path d=" M 1,4.5 L 1,4 L 1.5,4 L 1.5,4.5 L 1,4.5" fill="url(#grad31)"/><path d=" M 4,4.5 L 4,4 L 4.5,4 L 4.5,4.5 L 4.5,4.5 L 4,4.5" fill="url(#grad32)"/><path d=" M 0.5,0.5 L 0,0.5 L 0,0.5 L 0.5,0.5 L 0.5,0.5" fill="url(#grad33)"/><path d=" M 0.5,0.5 L 0.5,0 L 2.5,0 L 2.5,0.5 L 0.5,0.5" fill="url(#grad34)"/><path d=" M 2.5,0.5 L 3,0.5 L 3,0.5 L 2.5,0.5 L 2.5,0.5" fill="url(#grad35)"/><path d=" M 2.5,0.5 L 2.5,1 L 0.5,1 L 0.5,0.5 L 2.5,0.5" fill="url(#grad36)"/><path d=" M 0.5,1 L 0,1 L 0,0.5 L 0.5,0.5 L 0.5,1" fill="url(#grad37)"/><path d=" M 0,0.5 L 0,0 L 0.5,0 L 0.5,0.5 L 0,0.5" fill="url(#grad38)"/><path d=" M 2.5,0 L 3,0 L 3,0.5 L 2.5,0.5 L 2.5,0" fill="url(#grad39)"/><path d=" M 3,0.5 L 3,1 L 2.5,1 L 2.5,0.5 L 3,0.5" fill="url(#grad40)"/><path d=" M 4,4 L 4,2 L 5,2 L 5,6 L 3,6 L 3,5 L 1,5 L 1,4 L 4,4" fill="url(#grad41)"/><path d=" M 5,5.3 Q 5.188,5.3 5.35,5.394 Q 5.512,5.488 5.606,5.65 Q 5.7,5.812 5.7,6 Q 5.7,6.188 5.606,6.35 Q 5.512,6.512 5.35,6.606 Q 5.188,6.7 5,6.7 Q 4.812,6.7 4.65,6.606 Q 4.488,6.512 4.394,6.35 Q 4.3,6.188 4.3,6 L 5,6" fill="url(#grad42)"/><path d=" M 4,4 L 4,2 L 5,2 L 5,6 L 3,6 L 3,5 L 1,5 L 1,4 L 4,4" fill="url(#grad43)"/><path d=" M 5,1 L 5,6 L 3,6 L 3,5 L 1,5 L 1,4 L 0,4 L 0,0 L 3,0 L 3,1 L 5,1" fill="url(#grad44)"/><path d=" M 5,1 L 5,6 L 3,6 L 3,5 L 1,5 L 1,4 L 0,4 L 0,0 L 3,0 L 3,1 L 5,1" fill="url(#grad45)"/><path d=" M 5,1 L 5,6 L 3,6 L 3,5 L 1,5 L 1,4 L 0,4 L 0,0 L 3,0 L 3,1 L 5,1" fill="url(#grad46)"/><path d=" M 4,4 L 0,4 L 0,2 L 4,2 L 4,4" fill="url(#grad47)"/><path d=" M 4,4 L 4,2 L 5,2 L 5,6 L 3,6 L 3,5 L 1,5 L 1,4 L 4,4" fill="url(#grad48)"/><path d=" M 3,1 L 0,1 L 0,0 L 3,0 L 3,1" fill="url(#grad49)"/></g><g style="mix-blend-mode: plus-lighter"><path d=" M 0,0"/><path d=" M 4,4 L 0,4 L 0,2 L 4,2 L 4,4" fill="url(#grad50)"/><path d=" M 4,4 L 4,2 L 5,2 L 5,6 L 3,6 L 3,5 L 1,5 L 1,4 L 4,4" fill="url(#grad51)"/><path d=" M 3,1 L 0,1 L 0,0 L 3,0 L 3,1" fill="url(#grad52)"/></g><g><path d=" M 0,0"/><path d=" M 4.308,5.97 L 4.308,6.13 L 3.992,6.13 L 3.992,5.97 L 4.308,5.97" fill="#000000" stroke="#000000" stroke-width="0.04" stroke-linejoin="miter" stroke-linecap="square"/><path d=" M 4.945,5.945 L 5.055,5.945 L 5.055,6.055 L 4.945,6.055 L 4.945,5.945" fill="#000000" stroke="#000000" stroke-width="0.04" stroke-linejoin="miter" stroke-linecap="square"/><path d=" M 4.008,5.97 L 4.008,6.13 L 2.992,6.13 L 2.992,5.97 L 4.008,5.97" fill="#000000" stroke="#000000" stroke-width="0.04" stroke-linejoin="miter" stroke-linecap="square"/><path d=" M 3.945,5.945 L 4.055,5.945 L 4.055,6.055 L 3.945,6.055 L 3.945,5.945" fill="#000000" stroke="#000000" stroke-width="0.04" stroke-linejoin="miter" stroke-linecap="square"/><path d=" M 3.03,6.008 L 2.87,6.008 L 2.87,4.992 L 3.03,4.992 L 3.03,6.008" fill="#000000" stroke="#000000" stroke-width="0.04" stroke-linejoin="miter" stroke-linecap="square"/><path d=" M 2.945,5.945 L 3.055,5.945 L 3.055,6.055 L 2.945,6.055 L 2.945,5.945" fill="#000000" stroke="#000000" stroke-width="0.04" stroke-linejoin="miter" stroke-linecap="square"/><path d=" M 3.008,4.97 L 3.008,5.13 L 1.992,5.13 L 1.992,4.97 L 3.008,4.97" fill="#000000" stroke="#000000" stroke-width="0.04" stroke-linejoin="miter" stroke-linecap="square"/><path d=" M 2.945,4.945 L 3.055,4.945 L 3.055,5.055 L 2.945,5.055 L 2.945,4.945" fill="#000000" stroke="#000000" stroke-width="0.04" stroke-linejoin="miter" stroke-linecap="square"/><path d=" M 2.008,4.97 L 2.008,5.13 L 0.992,5.13 L 0.992,4.97 L 2.008,4.97" fill="#000000" stroke="#000000" stroke-width="0.04" stroke-linejoin="miter" stroke-linecap="square"/><path d=" M 1.945,4.945 L 2.055,4.945 L 2.055,5.055 L 1.945,5.055 L 1.945,4.945" fill="#000000" stroke="#000000" stroke-width="0.04" stroke-linejoin="miter" stroke-linecap="square"/><path d=" M 1.03,5.008 L 0.87,5.008 L 0.87,3.992 L 1.03,3.992 L 1.03,5.008" fill="#000000" stroke="#000000" stroke-width="0.04" stroke-linejoin="miter" stroke-linecap="square"/><path d=" M 0.945,4.945 L 1.055,4.945 L 1.055,5.055 L 0.945,5.055 L 0.945,4.945" fill="#000000" stroke="#000000" stroke-width="0.04" stroke-linejoin="miter" stroke-linecap="square"/><path d=" M 1.008,3.97 L 1.008,4.13 L -0.008,4.13 L -0.008,3.97 L 1.008,3.97" fill="#000000" stroke="#000000" stroke-width="0.04" stroke-linejoin="miter" stroke-linecap="square"/><path d=" M 0.945,3.945 L 1.055,3.945 L 1.055,4.055 L 0.945,4.055 L 0.945,3.945" fill="#000000" stroke="#000000" stroke-width="0.04" stroke-linejoin="miter" stroke-linecap="square"/><path d=" M 0.03,4.008 L -0.13,4.008 L -0.13,2.992 L 0.03,2.992 L 0.03,4.008" fill="#000000" stroke="#000000" stroke-width="0.04" stroke-linejoin="miter" stroke-linecap="square"/><path d=" M -0.055,3.945 L 0.055,3.945 L 0.055,4.055 L -0.055,4.055 L -0.055,3.945" fill="#000000" stroke="#000000" stroke-width="0.04" stroke-linejoin="miter" stroke-linecap="square"/><path d=" M 0.03,3.008 L -0.13,3.008 L -0.13,1.992 L 0.03,1.992 L 0.03,3.008" fill="#000000" stroke="#000000" stroke-width="0.04" stroke-linejoin="miter" stroke-linecap="square"/><path d=" M -0.055,2.945 L 0.055,2.945 L 0.055,3.055 L -0.055,3.055 L -0.055,2.945" fill="#000000" stroke="#000000" stroke-width="0.04" stroke-linejoin="miter" stroke-linecap="square"/><path d=" M 0.03,2.008 L -0.13,2.008 L -0.13,0.992 L 0.03,0.992 L 0.03,2.008" fill="#000000" stroke="#000000" stroke-width="0.04" stroke-linejoin="miter" stroke-linecap="square"/><path d=" M -0.055,1.945 L 0.055,1.945 L 0.055,2.055 L -0.055,2.055 L -0.055,1.945" fill="#000000" stroke="#000000" stroke-width="0.04" stroke-linejoin="miter" stroke-linecap="square"/><path d=" M 0.03,1.008 L -0.13,1.008 L -0.13,-0.008 L 0.03,-0.008 L 0.03,1.008" fill="#000000" stroke="#000000" stroke-width="0.04" stroke-linejoin="miter" stroke-linecap="square"/><path d=" M -0.055,0.945 L 0.055,0.945 L 0.055,1.055 L -0.055,1.055 L -0.055,0.945" fill="#000000" stroke="#000000" stroke-width="0.04" stroke-linejoin="miter" stroke-linecap="square"/><path d=" M -0.008,0.03 L -0.008,-0.13 L 1.008,-0.13 L 1.008,0.03 L -0.008,0.03" fill="#000000" stroke="#000000" stroke-width="0.04" stroke-linejoin="miter" stroke-linecap="square"/><path d=" M -0.055,-0.055 L 0.055,-0.055 L 0.055,0.055 L -0.055,0.055 L -0.055,-0.055" fill="#000000" stroke="#000000" stroke-width="0.04" stroke-linejoin="miter" stroke-linecap="square"/><path d=" M 0.992,0.03 L 0.992,-0.13 L 2.008,-0.13 L 2.008,0.03 L 0.992,0.03" fill="#000000" stroke="#000000" stroke-width="0.04" stroke-linejoin="miter" stroke-linecap="square"/><path d=" M 0.945,-0.055 L 1.055,-0.055 L 1.055,0.055 L 0.945,0.055 L 0.945,-0.055" fill="#000000" stroke="#000000" stroke-width="0.04" stroke-linejoin="miter" stroke-linecap="square"/><path d=" M 1.992,0.03 L 1.992,-0.13 L 3.008,-0.13 L 3.008,0.03 L 1.992,0.03" fill="#000000" stroke="#000000" stroke-width="0.04" stroke-linejoin="miter" stroke-linecap="square"/><path d=" M 1.945,-0.055 L 2.055,-0.055 L 2.055,0.055 L 1.945,0.055 L 1.945,-0.055" fill="#000000" stroke="#000000" stroke-width="0.04" stroke-linejoin="miter" stroke-linecap="square"/><path d=" M 2.97,-0.008 L 3.13,-0.008 L 3.13,1.008 L 2.97,1.008 L 2.97,-0.008" fill="#000000" stroke="#000000" stroke-width="0.04" stroke-linejoin="miter" stroke-linecap="square"/><path d=" M 2.945,-0.055 L 3.055,-0.055 L 3.055,0.055 L 2.945,0.055 L 2.945,-0.055" fill="#000000" stroke="#000000" stroke-width="0.04" stroke-linejoin="miter" stroke-linecap="square"/><path d=" M 2.992,1.03 L 2.992,0.87 L 4.008,0.87 L 4.008,1.03 L 2.992,1.03" fill="#000000" stroke="#000000" stroke-width="0.04" stroke-linejoin="miter" stroke-linecap="square"/><path d=" M 2.945,0.945 L 3.055,0.945 L 3.055,1.055 L 2.945,1.055 L 2.945,0.945" fill="#000000" stroke="#000000" stroke-width="0.04" stroke-linejoin="miter" stroke-linecap="square"/><path d=" M 3.992,1.03 L 3.992,0.87 L 5.008,0.87 L 5.008,1.03 L 3.992,1.03" fill="#000000" stroke="#000000" stroke-width="0.04" stroke-linejoin="miter" stroke-linecap="square"/><path d=" M 3.945,0.945 L 4.055,0.945 L 4.055,1.055 L 3.945,1.055 L 3.945,0.945" fill="#000000" stroke="#000000" stroke-width="0.04" stroke-linejoin="miter" stroke-linecap="square"/><path d=" M 4.97,0.992 L 5.13,0.992 L 5.13,2.008 L 4.97,2.008 L 4.97,0.992" fill="#000000" stroke="#000000" stroke-width="0.04" stroke-linejoin="miter" stroke-linecap="square"/><path d=" M 4.945,0.945 L 5.055,0.945 L 5.055,1.055 L 4.945,1.055 L 4.945,0.945" fill="#000000" stroke="#000000" stroke-width="0.04" stroke-linejoin="miter" stroke-linecap="square"/><path d=" M 4.97,1.992 L 5.13,1.992 L 5.13,3.008 L 4.97,3.008 L 4.97,1.992" fill="#000000" stroke="#000000" stroke-width="0.04" stroke-linejoin="miter" stroke-linecap="square"/><path d=" M 4.945,1.945 L 5.055,1.945 L 5.055,2.055 L 4.945,2.055 L 4.945,1.945" fill="#000000" stroke="#000000" stroke-width="0.04" stroke-linejoin="miter" stroke-linecap="square"/><path d=" M 4.97,3 L 5.13,3 L 5.13,3.25 L 4.97,3.25 L 4.97,3 M 4.97,3.75 L 5.13,3.75 L 5.13,4 L 4.97,4 L 4.97,3.75" fill="#000000" stroke="#000000" stroke-width="0.04" stroke-linejoin="miter" stroke-linecap="square"/><path d=" M 4.945,2.945 L 5.055,2.945 L 5.055,3.055 L 4.945,3.055 L 4.945,2.945" fill="#000000" stroke="#000000" stroke-width="0.04" stroke-linejoin="miter" stroke-linecap="square"/><path d=" M 4.97,3.992 L 5.13,3.992 L 5.13,5.008 L 4.97,5.008 L 4.97,3.992" fill="#000000" stroke="#000000" stroke-width="0.04" stroke-linejoin="miter" stroke-linecap="square"/><path d=" M 4.945,3.945 L 5.055,3.945 L 5.055,4.055 L 4.945,4.055 L 4.945,3.945" fill="#000000" stroke="#000000" stroke-width="0.04" stroke-linejoin="miter" stroke-linecap="square"/><path d=" M 4.97,4.992 L 5.13,4.992 L 5.13,5.308 L 4.97,5.308 L 4.97,4.992" fill="#000000" stroke="#000000" stroke-width="0.04" stroke-linejoin="miter" stroke-linecap="square"/><path d=" M 4.945,4.945 L 5.055,4.945 L 5.055,5.055 L 4.945,5.055 L 4.945,4.945" fill="#000000" stroke="#000000" stroke-width="0.04" stroke-linejoin="miter" stroke-linecap="square"/><path d=" M 2.87,5.97 L 3.03,5.97 L 3.03,6.13 L 2.87,6.13 L 2.87,5.97 M 2.87,4.97 L 3.03,4.97 L 3.03,5.13 L 2.87,5.13 L 2.87,4.97 M 0.87,4.97 L 1.03,4.97 L 1.03,5.13 L 0.87,5.13 L 0.87,4.97 M 0.87,3.97 L 1.03,3.97 L 1.03,4.13 L 0.87,4.13 L 0.87,3.97 M -0.13,3.97 L 0.03,3.97 L 0.03,4.13 L -0.13,4.13 L -0.13,3.97 M -0.13,-0.13 L 0.03,-0.13 L 0.03,0.03 L -0.13,0.03 L -0.13,-0.13 M 2.97,-0.13 L 3.13,-0.13 L 3.13,0.03 L 2.97,0.03 L 2.97,-0.13 M 2.97,0.87 L 3.13,0.87 L 3.13,1.03 L 2.97,1.03 L 2.97,0.87 M 4.97,0.87 L 5.13,0.87 L 5.13,1.03 L 4.97,1.03 L 4.97,0.87" fill="#000000" stroke="#000000" stroke-width="0.04" stroke-linejoin="miter" stroke-linecap="square"/><path d=" M 5,5.12 Q 5.236,5.12 5.44,5.238 Q 5.644,5.356 5.762,5.56 Q 5.88,5.764 5.88,6 Q 5.88,6.236 5.762,6.44 Q 5.644,6.644 5.44,6.762 Q 5.236,6.88 5,6.88 Q 4.764,6.88 4.56,6.762 Q 4.356,6.644 4.238,6.44 Q 4.12,6.236 4.12,6 L 4.3,6 Q 4.28,6.193 4.376,6.36 Q 4.473,6.527 4.64,6.624 Q 4.807,6.72 5,6.72 Q 5.193,6.72 5.36,6.624 Q 5.527,6.527 5.624,6.36 Q 5.72,6.193 5.72,6 Q 5.72,5.807 5.624,5.64 Q 5.527,5.473 5.36,5.376 Q 5.193,5.28 5,5.28" fill="#000000" stroke="#000000" stroke-width="0.04" stroke-linejoin="miter" stroke-linecap="square"/><path d=" M 4.97,4.97 L 5.03,4.97 L 5.03,6.03 L 4.97,6.03 L 4.97,4.97" fill="#000000" stroke="#000000" stroke-width="0.04" stroke-linejoin="miter" stroke-linecap="square"/><path d=" M 0,1.03 L 0,0.97 L 0.32,0.97 L 0.32,1.03 L 0,1.03 M 0.68,1.03 L 0.68,0.97 L 1,0.97 L 1,1.03 L 0.68,1.03" fill="#000000" stroke="#000000" stroke-width="0.04" stroke-linejoin="miter" stroke-linecap="square"/><path d=" M -0.055,0.945 L 0.055,0.945 L 0.055,1.055 L -0.055,1.055 L -0.055,0.945" fill="#000000" stroke="#000000" stroke-width="0.04" stroke-linejoin="miter" stroke-linecap="square"/><path d=" M 0.97,1.03 L 0.97,0.97 L 2.03,0.97 L 2.03,1.03 L 0.97,1.03" fill="#000000" stroke="#000000" stroke-width="0.04" stroke-linejoin="miter" stroke-linecap="square"/><path d=" M 0.945,0.945 L 1.055,0.945 L 1.055,1.055 L 0.945,1.055 L 0.945,0.945" fill="#000000" stroke="#000000" stroke-width="0.04" stroke-linejoin="miter" stroke-linecap="square"/><path d=" M 1.97,1.03 L 1.97,0.97 L 3.03,0.97 L 3.03,1.03 L 1.97,1.03" fill="#000000" stroke="#000000" stroke-width="0.04" stroke-linejoin="miter" stroke-linecap="square"/><path d=" M 1.945,0.945 L 2.055,0.945 L 2.055,1.055 L 1.945,1.055 L 1.945,0.945" fill="#000000" stroke="#000000" stroke-width="0.04" stroke-linejoin="miter" stroke-linecap="square"/><path d=" M 5,1.97 L 5,2.03 L 4.68,2.03 L 4.68,1.97 L 5,1.97 M 4.32,1.97 L 4.32,2.03 L 4,2.03 L 4,1.97 L 4.32,1.97" fill="#000000" stroke="#000000" stroke-width="0.04" stroke-linejoin="miter" stroke-linecap="square"/><path d=" M 4.945,1.945 L 5.055,1.945 L 5.055,2.055 L 4.945,2.055 L 4.945,1.945" fill="#000000" stroke="#000000" stroke-width="0.04" stroke-linejoin="miter" stroke-linecap="square"/><path d=" M 4,1.97 L 4,2.03 L 3.68,2.03 L 3.68,1.97 L 4,1.97 M 3.32,1.97 L 3.32,2.03 L 3,2.03 L 3,1.97 L 3.32,1.97" fill="#000000" stroke="#000000" stroke-width="0.04" stroke-linejoin="miter" stroke-linecap="square"/><path d=" M 3.945,1.945 L 4.055,1.945 L 4.055,2.055 L 3.945,2.055 L 3.945,1.945" fill="#000000" stroke="#000000" stroke-width="0.04" stroke-linejoin="miter" stroke-linecap="square"/><path d=" M 3.03,1.97 L 3.03,2.03 L 1.97,2.03 L 1.97,1.97 L 3.03,1.97" fill="#000000" stroke="#000000" stroke-width="0.04" stroke-linejoin="miter" stroke-linecap="square"/><path d=" M 2.945,1.945 L 3.055,1.945 L 3.055,2.055 L 2.945,2.055 L 2.945,1.945" fill="#000000" stroke="#000000" stroke-width="0.04" stroke-linejoin="miter" stroke-linecap="square"/><path d=" M 2.03,1.97 L 2.03,2.03 L 0.97,2.03 L 0.97,1.97 L 2.03,1.97" fill="#000000" stroke="#000000" stroke-width="0.04" stroke-linejoin="miter" stroke-linecap="square"/><path d=" M 1.945,1.945 L 2.055,1.945 L 2.055,2.055 L 1.945,2.055 L 1.945,1.945" fill="#000000" stroke="#000000" stroke-width="0.04" stroke-linejoin="miter" stroke-linecap="square"/><path d=" M 1.03,1.97 L 1.03,2.03 L -0.03,2.03 L -0.03,1.97 L 1.03,1.97" fill="#000000" stroke="#000000" stroke-width="0.04" stroke-linejoin="miter" stroke-linecap="square"/><path d=" M 0.945,1.945 L 1.055,1.945 L 1.055,2.055 L 0.945,2.055 L 0.945,1.945" fill="#000000" stroke="#000000" stroke-width="0.04" stroke-linejoin="miter" stroke-linecap="square"/><path d=" M 3.97,1.97 L 4.03,1.97 L 4.03,3.03 L 3.97,3.03 L 3.97,1.97" fill="#000000" stroke="#000000" stroke-width="0.04" stroke-linejoin="miter" stroke-linecap="square"/><path d=" M 3.945,1.945 L 4.055,1.945 L 4.055,2.055 L 3.945,2.055 L 3.945,1.945" fill="#000000" stroke="#000000" stroke-width="0.04" stroke-linejoin="miter" stroke-linecap="square"/><path d=" M 3.97,2.97 L 4.03,2.97 L 4.03,4.03 L 3.97,4.03 L 3.97,2.97" fill="#000000" stroke="#000000" stroke-width="0.04" stroke-linejoin="miter" stroke-linecap="square"/><path d=" M 3.945,2.945 L 4.055,2.945 L 4.055,3.055 L 3.945,3.055 L 3.945,2.945" fill="#000000" stroke="#000000" stroke-width="0.04" stroke-linejoin="miter" stroke-linecap="square"/><path d=" M 4.03,3.97 L 4.03,4.03 L 2.97,4.03 L 2.97,3.97 L 4.03,3.97" fill="#000000" stroke="#000000" stroke-width="0.04" stroke-linejoin="miter" stroke-linecap="square"/><path d=" M 3.945,3.945 L 4.055,3.945 L 4.055,4.055 L 3.945,4.055 L 3.945,3.945" fill="#000000" stroke="#000000" stroke-width="0.04" stroke-linejoin="miter" stroke-linecap="square"/><path d=" M 3.03,3.97 L 3.03,4.03 L 1.97,4.03 L 1.97,3.97 L 3.03,3.97" fill="#000000" stroke="#000000" stroke-width="0.04" stroke-linejoin="miter" stroke-linecap="square"/><path d=" M 2.945,3.945 L 3.055,3.945 L 3.055,4.055 L 2.945,4.055 L 2.945,3.945" fill="#000000" stroke="#000000" stroke-width="0.04" stroke-linejoin="miter" stroke-linecap="square"/><path d=" M 2.03,3.97 L 2.03,4.03 L 0.97,4.03 L 0.97,3.97 L 2.03,3.97" fill="#000000" stroke="#000000" stroke-width="0.04" stroke-linejoin="miter" stroke-linecap="square"/><path d=" M 1.945,3.945 L 2.055,3.945 L 2.055,4.055 L 1.945,4.055 L 1.945,3.945" fill="#000000" stroke="#000000" stroke-width="0.04" stroke-linejoin="miter" stroke-linecap="square"/><path d=" M 4.308,5.97 L 4.308,6.13 L 3.992,6.13 L 3.992,5.97 L 4.308,5.97" fill="#B2B2B2"/><path d=" M 4.945,5.945 L 5.055,5.945 L 5.055,6.055 L 4.945,6.055 L 4.945,5.945" fill="#B2B2B2"/><path d=" M 4.008,5.97 L 4.008,6.13 L 2.992,6.13 L 2.992,5.97 L 4.008,5.97" fill="#B2B2B2"/><path d=" M 3.945,5.945 L 4.055,5.945 L 4.055,6.055 L 3.945,6.055 L 3.945,5.945" fill="#B2B2B2"/><path d=" M 3.03,6.008 L 2.87,6.008 L 2.87,4.992 L 3.03,4.992 L 3.03,6.008" fill="#B2B2B2"/><path d=" M 2.945,5.945 L 3.055,5.945 L 3.055,6.055 L 2.945,6.055 L 2.945,5.945" fill="#B2B2B2"/><path d=" M 3.008,4.97 L 3.008,5.13 L 1.992,5.13 L 1.992,4.97 L 3.008,4.97" fill="#B2B2B2"/><path d=" M 2.945,4.945 L 3.055,4.945 L 3.055,5.055 L 2.945,5.055 L 2.945,4.945" fill="#B2B2B2"/><path d=" M 2.008,4.97 L 2.008,5.13 L 0.992,5.13 L 0.992,4.97 L 2.008,4.97" fill="#B2B2B2"/><path d=" M 1.945,4.945 L 2.055,4.945 L 2.055,5.055 L 1.945,5.055 L 1.945,4.945" fill="#B2B2B2"/><path d=" M 1.03,5.008 L 0.87,5.008 L 0.87,3.992 L 1.03,3.992 L 1.03,5.008" fill="#B2B2B2"/><path d=" M 0.945,4.945 L 1.055,4.945 L 1.055,5.055 L 0.945,5.055 L 0.945,4.945" fill="#B2B2B2"/><path d=" M 1.008,3.97 L 1.008,4.13 L -0.008,4.13 L -0.008,3.97 L 1.008,3.97" fill="#B2B2B2"/><path d=" M 0.945,3.945 L 1.055,3.945 L 1.055,4.055 L 0.945,4.055 L 0.945,3.945" fill="#B2B2B2"/><path d=" M 0.03,4.008 L -0.13,4.008 L -0.13,2.992 L 0.03,2.992 L 0.03,4.008" fill="#B2B2B2"/><path d=" M -0.055,3.945 L 0.055,3.945 L 0.055,4.055 L -0.055,4.055 L -0.055,3.945" fill="#B2B2B2"/><path d=" M 0.03,3.008 L -0.13,3.008 L -0.13,1.992 L 0.03,1.992 L 0.03,3.008" fill="#B2B2B2"/><path d=" M -0.055,2.945 L 0.055,2.945 L 0.055,3.055 L -0.055,3.055 L -0.055,2.945" fill="#B2B2B2"/><path d=" M 0.03,2.008 L -0.13,2.008 L -0.13,0.992 L 0.03,0.992 L 0.03,2.008" fill="#B2B2B2"/><path d=" M -0.055,1.945 L 0.055,1.945 L 0.055,2.055 L -0.055,2.055 L -0.055,1.945" fill="#B2B2B2"/><path d=" M 0.03,1.008 L -0.13,1.008 L -0.13,-0.008 L 0.03,-0.008 L 0.03,1.008" fill="#B2B2B2"/><path d=" M -0.055,0.945 L 0.055,0.945 L 0.055,1.055 L -0.055,1.055 L -0.055,0.945" fill="#B2B2B2"/><path d=" M -0.008,0.03 L -0.008,-0.13 L 1.008,-0.13 L 1.008,0.03 L -0.008,0.03" fill="#B2B2B2"/><path d=" M -0.055,-0.055 L 0.055,-0.055 L 0.055,0.055 L -0.055,0.055 L -0.055,-0.055" fill="#B2B2B2"/><path d=" M 0.992,0.03 L 0.992,-0.13 L 2.008,-0.13 L 2.008,0.03 L 0.992,0.03" fill="#B2B2B2"/><path d=" M 0.945,-0.055 L 1.055,-0.055 L 1.055,0.055 L 0.945,0.055 L 0.945,-0.055" fill="#B2B2B2"/><path d=" M 1.992,0.03 L 1.992,-0.13 L 3.008,-0.13 L 3.008,0.03 L 1.992,0.03" fill="#B2B2B2"/><path d=" M 1.945,-0.055 L 2.055,-0.055 L 2.055,0.055 L 1.945,0.055 L 1.945,-0.055" fill="#B2B2B2"/><path d=" M 2.97,-0.008 L 3.13,-0.008 L 3.13,1.008 L 2.97,1.008 L 2.97,-0.008" fill="#B2B2B2"/><path d=" M 2.945,-0.055 L 3.055,-0.055 L 3.055,0.055 L 2.945,0.055 L 2.945,-0.055" fill="#B2B2B2"/><path d=" M 2.992,1.03 L 2.992,0.87 L 4.008,0.87 L 4.008,1.03 L 2.992,1.03" fill="#B2B2B2"/><path d=" M 2.945,0.945 L 3.055,0.945 L 3.055,1.055 L 2.945,1.055 L 2.945,0.945" fill="#B2B2B2"/><path d=" M 3.992,1.03 L 3.992,0.87 L 5.008,0.87 L 5.008,1.03 L 3.992,1.03" fill="#B2B2B2"/><path d=" M 3.945,0.945 L 4.055,0.945 L 4.055,1.055 L 3.945,1.055 L 3.945,0.945" fill="#B2B2B2"/><path d=" M 4.97,0.992 L 5.13,0.992 L 5.13,2.008 L 4.97,2.008 L 4.97,0.992" fill="#B2B2B2"/><path d=" M 4.945,0.945 L 5.055,0.945 L 5.055,1.055 L 4.945,1.055 L 4.945,0.945" fill="#B2B2B2"/><path d=" M 4.97,1.992 L 5.13,1.992 L 5.13,3.008 L 4.97,3.008 L 4.97,1.992" fill="#B2B2B2"/><path d=" M 4.945,1.945 L 5.055,1.945 L 5.055,2.055 L 4.945,2.055 L 4.945,1.945" fill="#B2B2B2"/><path d=" M 4.97,3 L 5.13,3 L 5.13,3.25 L 4.97,3.25 L 4.97,3 M 4.97,3.75 L 5.13,3.75 L 5.13,4 L 4.97,4 L 4.97,3.75" fill="#B2B2B2"/><path d=" M 4.945,2.945 L 5.055,2.945 L 5.055,3.055 L 4.945,3.055 L 4.945,2.945" fill="#B2B2B2"/><path d=" M 4.97,3.992 L 5.13,3.992 L 5.13,5.008 L 4.97,5.008 L 4.97,3.992" fill="#B2B2B2"/><path d=" M 4.945,3.945 L 5.055,3.945 L 5.055,4.055 L 4.945,4.055 L 4.945,3.945" fill="#B2B2B2"/><path d=" M 4.97,4.992 L 5.13,4.992 L 5.13,5.308 L 4.97,5.308 L 4.97,4.992" fill="#B2B2B2"/><path d=" M 4.945,4.945 L 5.055,4.945 L 5.055,5.055 L 4.945,5.055 L 4.945,4.945" fill="#B2B2B2"/><path d=" M 2.87,5.97 L 3.03,5.97 L 3.03,6.13 L 2.87,6.13 L 2.87,5.97 M 2.87,4.97 L 3.03,4.97 L 3.03,5.13 L 2.87,5.13 L 2.87,4.97 M 0.87,4.97 L 1.03,4.97 L 1.03,5.13 L 0.87,5.13 L 0.87,4.97 M 0.87,3.97 L 1.03,3.97 L 1.03,4.13 L 0.87,4.13 L 0.87,3.97 M -0.13,3.97 L 0.03,3.97 L 0.03,4.13 L -0.13,4.13 L -0.13,3.97 M -0.13,-0.13 L 0.03,-0.13 L 0.03,0.03 L -0.13,0.03 L -0.13,-0.13 M 2.97,-0.13 L 3.13,-0.13 L 3.13,0.03 L 2.97,0.03 L 2.97,-0.13 M 2.97,0.87 L 3.13,0.87 L 3.13,1.03 L 2.97,1.03 L 2.97,0.87 M 4.97,0.87 L 5.13,0.87 L 5.13,1.03 L 4.97,1.03 L 4.97,0.87" fill="#B2B2B2"/><path d=" M 5,5.12 Q 5.236,5.12 5.44,5.238 Q 5.644,5.356 5.762,5.56 Q 5.88,5.764 5.88,6 Q 5.88,6.236 5.762,6.44 Q 5.644,6.644 5.44,6.762 Q 5.236,6.88 5,6.88 Q 4.764,6.88 4.56,6.762 Q 4.356,6.644 4.238,6.44 Q 4.12,6.236 4.12,6 L 4.3,6 Q 4.28,6.193 4.376,6.36 Q 4.473,6.527 4.64,6.624 Q 4.807,6.72 5,6.72 Q 5.193,6.72 5.36,6.624 Q 5.527,6.527 5.624,6.36 Q 5.72,6.193 5.72,6 Q 5.72,5.807 5.624,5.64 Q 5.527,5.473 5.36,5.376 Q 5.193,5.28 5,5.28" fill="#B2B2B2"/><path d=" M 4.97,4.97 L 5.03,4.97 L 5.03,6.03 L 4.97,6.03 L 4.97,4.97" fill="#B2B2B2"/><path d=" M 0,1.03 L 0,0.97 L 0.32,0.97 L 0.32,1.03 L 0,1.03 M 0.68,1.03 L 0.68,0.97 L 1,0.97 L 1,1.03 L 0.68,1.03" fill="#B2B2B2"/><path d=" M -0.055,0.945 L 0.055,0.945 L 0.055,1.055 L -0.055,1.055 L -0.055,0.945" fill="#B2B2B2"/><path d=" M 0.97,1.03 L 0.97,0.97 L 2.03,0.97 L 2.03,1.03 L 0.97,1.03" fill="#B2B2B2"/><path d=" M 0.945,0.945 L 1.055,0.945 L 1.055,1.055 L 0.945,1.055 L 0.945,0.945" fill="#B2B2B2"/><path d=" M 1.97,1.03 L 1.97,0.97 L 3.03,0.97 L 3.03,1.03 L 1.97,1.03" fill="#B2B2B2"/><path d=" M 1.945,0.945 L 2.055,0.945 L 2.055,1.055 L 1.945,1.055 L 1.945,0.945" fill="#B2B2B2"/><path d=" M 5,1.97 L 5,2.03 L 4.68,2.03 L 4.68,1.97 L 5,1.97 M 4.32,1.97 L 4.32,2.03 L 4,2.03 L 4,1.97 L 4.32,1.97" fill="#B2B2B2"/><path d=" M 4.945,1.945 L 5.055,1.945 L 5.055,2.055 L 4.945,2.055 L 4.945,1.945" fill="#B2B2B2"/><path d=" M 4,1.97 L 4,2.03 L 3.68,2.03 L 3.68,1.97 L 4,1.97 M 3.32,1.97 L 3.32,2.03 L 3,2.03 L 3,1.97 L 3.32,1.97" fill="#B2B2B2"/><path d=" M 3.945,1.945 L 4.055,1.945 L 4.055,2.055 L 3.945,2.055 L 3.945,1.945" fill="#B2B2B2"/><path d=" M 3.03,1.97 L 3.03,2.03 L 1.97,2.03 L 1.97,1.97 L 3.03,1.97" fill="#B2B2B2"/><path d=" M 2.945,1.945 L 3.055,1.945 L 3.055,2.055 L 2.945,2.055 L 2.945,1.945" fill="#B2B2B2"/><path d=" M 2.03,1.97 L 2.03,2.03 L 0.97,2.03 L 0.97,1.97 L 2.03,1.97" fill="#B2B2B2"/><path d=" M 1.945,1.945 L 2.055,1.945 L 2.055,2.055 L 1.945,2.055 L 1.945,1.945" fill="#B2B2B2"/><path d=" M 1.03,1.97 L 1.03,2.03 L -0.03,2.03 L -0.03,1.97 L 1.03,1.97" fill="#B2B2B2"/><path d=" M 0.945,1.945 L 1.055,1.945 L 1.055,2.055 L 0.945,2.055 L 0.945,1.945" fill="#B2B2B2"/><path d=" M 3.97,1.97 L 4.03,1.97 L 4.03,3.03 L 3.97,3.03 L 3.97,1.97" fill="#B2B2B2"/><path d=" M 3.945,1.945 L 4.055,1.945 L 4.055,2.055 L 3.945,2.055 L 3.945,1.945" fill="#B2B2B2"/><path d=" M 3.97,2.97 L 4.03,2.97 L 4.03,4.03 L 3.97,4.03 L 3.97,2.97" fill="#B2B2B2"/><path d=" M 3.945,2.945 L 4.055,2.945 L 4.055,3.055 L 3.945,3.055 L 3.945,2.945" fill="#B2B2B2"/><path d=" M 4.03,3.97 L 4.03,4.03 L 2.97,4.03 L 2.97,3.97 L 4.03,3.97" fill="#B2B2B2"/><path d=" M 3.945,3.945 L 4.055,3.945 L 4.055,4.055 L 3.945,4.055 L 3.945,3.945" fill="#B2B2B2"/><path d=" M 3.03,3.97 L 3.03,4.03 L 1.97,4.03 L 1.97,3.97 L 3.03,3.97" fill="#B2B2B2"/><path d=" M 2.945,3.945 L 3.055,3.945 L 3.055,4.055 L 2.945,4.055 L 2.945,3.945" fill="#B2B2B2"/><path d=" M 2.03,3.97 L 2.03,4.03 L 0.97,4.03 L 0.97,3.97 L 2.03,3.97" fill="#B2B2B2"/><path d=" M 1.945,3.945 L 2.055,3.945 L 2.055,4.055 L 1.945,4.055 L 1.945,3.945" fill="#B2B2B2"/></g><g><path d=" M 0,0"/><path d=" M 0.66,4.05 L 0.34,4.05" stroke="#000000" stroke-width="0.2" stroke-linejoin="round" stroke-linecap="butt"/><path d=" M 0.64,4.05 L 0.36,4.05" stroke="#8C8C8C" stroke-width="0.16" stroke-linejoin="round" stroke-linecap="butt"/><path d=" M -0.05,3.66 L -0.05,3.34" stroke="#000000" stroke-width="0.2" stroke-linejoin="round" stroke-linecap="butt"/><path d=" M -0.05,3.64 L -0.05,3.36" stroke="#8C8C8C" stroke-width="0.16" stroke-linejoin="round" stroke-linecap="butt"/><path d=" M -0.05,2.66 L -0.05,2.34" stroke="#000000" stroke-width="0.2" stroke-linejoin="round" stroke-linecap="butt"/><path d=" M -0.05,2.64 L -0.05,2.36" stroke="#8C8C8C" stroke-width="0.16" stroke-linejoin="round" stroke-linecap="butt"/><path d=" M -0.05,1.66 L -0.05,1.34" stroke="#000000" stroke-width="0.2" stroke-linejoin="round" stroke-linecap="butt"/><path d=" M -0.05,1.64 L -0.05,1.36" stroke="#8C8C8C" stroke-width="0.16" stroke-linejoin="round" stroke-linecap="butt"/><path d=" M 3.34,0.95 L 3.66,0.95" stroke="#000000" stroke-width="0.2" stroke-linejoin="round" stroke-linecap="butt"/><path d=" M 3.36,0.95 L 3.64,0.95" stroke="#8C8C8C" stroke-width="0.16" stroke-linejoin="round" stroke-linecap="butt"/><path d=" M 4.34,0.95 L 4.66,0.95" stroke="#000000" stroke-width="0.2" stroke-linejoin="round" stroke-linecap="butt"/><path d=" M 4.36,0.95 L 4.64,0.95" stroke="#8C8C8C" stroke-width="0.16" stroke-linejoin="round" stroke-linecap="butt"/><path d=" M 5.05,2.34 L 5.05,2.66" stroke="#000000" stroke-width="0.2" stroke-linejoin="round" stroke-linecap="butt"/><path d=" M 5.05,2.36 L 5.05,2.64" stroke="#8C8C8C" stroke-width="0.16" stroke-linejoin="round" stroke-linecap="butt"/><path d=" M 5.05,4.34 L 5.05,4.66" stroke="#000000" stroke-width="0.2" stroke-linejoin="round" stroke-linecap="butt"/><path d=" M 5.05,4.36 L 5.05,4.64" stroke="#8C8C8C" stroke-width="0.16" stroke-linejoin="round" stroke-linecap="butt"/><path d=" M 2.66,5.05 L 2.34,5.05" stroke="#000000" stroke-width="0.2" stroke-linejoin="round" stroke-linecap="butt"/><path d=" M 2.64,5.05 L 2.36,5.05" stroke="#8C8C8C" stroke-width="0.16" stroke-linejoin="round" stroke-linecap="butt"/><path d=" M 1.66,5.05 L 1.34,5.05" stroke="#000000" stroke-width="0.2" stroke-linejoin="round" stroke-linecap="butt"/><path d=" M 1.64,5.05 L 1.36,5.05" stroke="#8C8C8C" stroke-width="0.16" stroke-linejoin="round" stroke-linecap="butt"/><path d=" M 2.95,5.66 L 2.95,5.34" stroke="#000000" stroke-width="0.2" stroke-linejoin="round" stroke-linecap="butt"/><path d=" M 2.95,5.64 L 2.95,5.36" stroke="#8C8C8C" stroke-width="0.16" stroke-linejoin="round" stroke-linecap="butt"/><path d=" M 5.05,1.34 L 5.05,1.66" stroke="#000000" stroke-width="0.2" stroke-linejoin="round" stroke-linecap="butt"/><path d=" M 5.05,1.36 L 5.05,1.64" stroke="#8C8C8C" stroke-width="0.16" stroke-linejoin="round" stroke-linecap="butt"/><path d=" M 5.668,6.443 L 5.598,6.532 L 5.532,6.598 L 5.443,6.668" stroke="#000000" stroke-width="0.2" stroke-linejoin="round" stroke-linecap="butt"/><path d=" M 5.656,6.459 L 5.598,6.532 L 5.532,6.598 L 5.459,6.656" stroke="#8C8C8C" stroke-width="0.16" stroke-linejoin="round" stroke-linecap="butt"/></g><g><path d=" M 0,0"/></g></g><g stroke="#453C35" stroke-width="2"><path d=" M 0,0"/><g transform="translate(2.5 1.5) scale(0.021 0.021)"><path d=" M 0,0"/><text dominant-baseline="text-before-edge" style="font: 28px Share Tech" fill="#E5D6B7" transform="translate(-43.925 -16)">Corridor</text></g><g transform="translate(2 3) scale(0.026 0.026)"><path d=" M 0,0"/><text dominant-baseline="text-before-edge" style="font: 28px Share Tech" fill="#E5D6B7" transform="translate(-35.008 -27)"><tspan x="2" y="2">Living
</tspan><tspan x="7" y="20">room</tspan></text></g><g transform="translate(4 5) scale(0.028 0.028)"><path d=" M 0,0"/><text dominant-baseline="text-before-edge" style="font: 28px Share Tech" fill="#E5D6B7" transform="translate(-21.283 -16)">Hall</text></g><g transform="translate(1.5 0.5) scale(0.021 0.021)"><path d=" M 0,0"/><text dominant-baseline="text-before-edge" style="font: 28px Share Tech" fill="#E5D6B7" transform="translate(-42.017 -16)">Storage</text></g></g><g><path d=" M 0,0"/><g transform="translate(2.5 1.5) scale(0.021 0.021)"><path d=" M 0,0"/><text dominant-baseline="text-before-edge" style="font: 28px Share Tech" fill="#E5D6B7" transform="translate(-43.925 -16)">Corridor</text></g><g transform="translate(2 3) scale(0.026 0.026)"><path d=" M 0,0"/><text dominant-baseline="text-before-edge" style="font: 28px Share Tech" fill="#E5D6B7" transform="translate(-35.008 -27)"><tspan x="2" y="2">Living
</tspan><tspan x="7" y="20">room</tspan></text></g><g transform="translate(4 5) scale(0.028 0.028)"><path d=" M 0,0"/><text dominant-baseline="text-before-edge" style="font: 28px Share Tech" fill="#E5D6B7" transform="translate(-21.283 -16)">Hall</text></g><g transform="translate(1.5 0.5) scale(0.021 0.021)"><path d=" M 0,0"/><text dominant-baseline="text-before-edge" style="font: 28px Share Tech" fill="#E5D6B7" transform="translate(-42.017 -16)">Storage</text></g></g></g><style><![CDATA[@import url("https://fonts.googleapis.com/css2?family=Share+Tech&display=swap");]]></style><defs><linearGradient id="grad1" gradientUnits="userSpaceOnUse" x1="0" y1="1.5" x2="0.5" y2="1.5"><stop offset="0%" stop-color="#333333" stop-opacity="0.5"/><stop offset="25%" stop-color="#333333" stop-opacity="0.28125"/><stop offset="50%" stop-color="#333333" stop-opacity="0.125"/><stop offset="75%" stop-color="#333333" stop-opacity="0.03125"/><stop offset="100%" stop-color="#333333" stop-opacity="0"/></linearGradient><linearGradient id="grad2" gradientUnits="userSpaceOnUse" x1="0.5" y1="1" x2="0.5" y2="1.5"><stop offset="0%" stop-color="#333333" stop-opacity="0.5"/><stop offset="25%" stop-color="#333333" stop-opacity="0.28125"/><stop offset="50%" stop-color="#333333" stop-opacity="0.125"/><stop offset="75%" stop-color="#333333" stop-opacity="0.03125"/><stop offset="100%" stop-color="#333333" stop-opacity="0"/></linearGradient><linearGradient id="grad3" gradientUnits="userSpaceOnUse" x1="5" y1="1.5" x2="4.5" y2="1.5"><stop offset="0%" stop-color="#333333" stop-opacity="0.5"/><stop offset="25%" stop-color="#333333" stop-opacity="0.28125"/><stop offset="50%" stop-color="#333333" stop-opacity="0.125"/><stop offset="75%" stop-color="#333333" stop-opacity="0.03125"/><stop offset="100%" stop-color="#333333" stop-opacity="0"/></linearGradient><linearGradient id="grad4" gradientUnits="userSpaceOnUse" x1="4.5" y1="2" x2="4.5" y2="1.5"><stop offset="0%" stop-color="#333333" stop-opacity="0.5"/><stop offset="25%" stop-color="#333333" stop-opacity="0.28125"/><stop offset="50%" stop-color="#333333" stop-opacity="0.125"/><stop offset="75%" stop-color="#333333" stop-opacity="0.03125"/><stop offset="100%" stop-color="#333333" stop-opacity="0"/></linearGradient><radialGradient id="grad5" gradientUnits="userSpaceOnUse" cx="0.5" cy="1.5" r="0.5"><stop offset="0%" stop-color="#333333" stop-opacity="0"/><stop offset="25%" stop-color="#333333" stop-opacity="0.03125"/><stop offset="50%" stop-color="#333333" stop-opacity="0.125"/><stop offset="75%" stop-color="#333333" stop-opacity="0.28125"/><stop offset="100%" stop-color="#333333" stop-opacity="0.5"/></radialGradient><radialGradient id="grad6" gradientUnits="userSpaceOnUse" cx="0.5" cy="1.5" r="0.5"><stop offset="0%" stop-color="#333333" stop-opacity="0"/><stop offset="25%" stop-color="#333333" stop-opacity="0.03125"/><stop offset="50%" stop-color="#333333" stop-opacity="0.125"/><stop offset="75%" stop-color="#333333" stop-opacity="0.28125"/><stop offset="100%" stop-color="#333333" stop-opacity="0.5"/></radialGradient><radialGradient id="grad7" gradientUnits="userSpaceOnUse" cx="4.5" cy="1.5" r="0.5"><stop offset="0%" stop-color="#333333" stop-opacity="0"/><stop offset="25%" stop-color="#333333" stop-opacity="0.03125"/><stop offset="50%" stop-color="#333333" stop-opacity="0.125"/><stop offset="75%" stop-color="#333333" stop-opacity="0.28125"/><stop offset="100%" stop-color="#333333" stop-opacity="0.5"/></radialGradient><radialGradient id="grad8" gradientUnits="userSpaceOnUse" cx="4.5" cy="1.5" r="0.5"><stop offset="0%" stop-color="#333333" stop-opacity="0"/><stop offset="25%" stop-color="#333333" stop-opacity="0.03125"/><stop offset="50%" stop-color="#333333" stop-opacity="0.125"/><stop offset="75%" stop-color="#333333" stop-opacity="0.28125"/><stop offset="100%" stop-color="#333333" stop-opacity="0.5"/></radialGradient><linearGradient id="grad9" gradientUnits="userSpaceOnUse" x1="0" y1="3.5" x2="0.5" y2="3.5"><stop offset="0%" stop-color="#333333" stop-opacity="0.5"/><stop offset="25%" stop-color="#333333" stop-opacity="0.28125"/><stop offset="50%" stop-color="#333333" stop-opacity="0.125"/><stop offset="75%" stop-color="#333333" stop-opacity="0.03125"/><stop offset="100%" stop-color="#333333" stop-opacity="0"/></linearGradient><linearGradient id="grad10" gradientUnits="userSpaceOnUse" x1="0.5" y1="2" x2="0.5" y2="2.5"><stop offset="0%" stop-color="#333333" stop-opacity="0.5"/><stop offset="25%" stop-color="#333333" stop-opacity="0.28125"/><stop offset="50%" stop-color="#333333" stop-opacity="0.125"/><stop offset="75%" stop-color="#333333" stop-opacity="0.03125"/><stop offset="100%" stop-color="#333333" stop-opacity="0"/></linearGradient><linearGradient id="grad11" gradientUnits="userSpaceOnUse" x1="4" y1="2.5" x2="3.5" y2="2.5"><stop offset="0%" stop-color="#333333" stop-opacity="0.5"/><stop offset="25%" stop-color="#333333" stop-opacity="0.28125"/><stop offset="50%" stop-color="#333333" stop-opacity="0.125"/><stop offset="75%" stop-color="#333333" stop-opacity="0.03125"/><stop offset="100%" stop-color="#333333" stop-opacity="0"/></linearGradient><linearGradient id="grad12" gradientUnits="userSpaceOnUse" x1="3.5" y1="4" x2="3.5" y2="3.5"><stop offset="0%" stop-color="#333333" stop-opacity="0.5"/><stop offset="25%" stop-color="#333333" stop-opacity="0.28125"/><stop offset="50%" stop-color="#333333" stop-opacity="0.125"/><stop offset="75%" stop-color="#333333" stop-opacity="0.03125"/><stop offset="100%" stop-color="#333333" stop-opacity="0"/></linearGradient><radialGradient id="grad13" gradientUnits="userSpaceOnUse" cx="0.5" cy="3.5" r="0.5"><stop offset="0%" stop-color="#333333" stop-opacity="0"/><stop offset="25%" stop-color="#333333" stop-opacity="0.03125"/><stop offset="50%" stop-color="#333333" stop-opacity="0.125"/><stop offset="75%" stop-color="#333333" stop-opacity="0.28125"/><stop offset="100%" stop-color="#333333" stop-opacity="0.5"/></radialGradient><radialGradient id="grad14" gradientUnits="userSpaceOnUse" cx="0.5" cy="2.5" r="0.5"><stop offset="0%" stop-color="#333333" stop-opacity="0"/><stop offset="25%" stop-color="#333333" stop-opacity="0.03125"/><stop offset="50%" stop-color="#333333" stop-opacity="0.125"/><stop offset="75%" stop-color="#333333" stop-opacity="0.28125"/><stop offset="100%" stop-color="#333333" stop-opacity="0.5"/></radialGradient><radialGradient id="grad15" gradientUnits="userSpaceOnUse" cx="3.5" cy="2.5" r="0.5"><stop offset="0%" stop-color="#333333" stop-opacity="0"/><stop offset="25%" stop-color="#333333" stop-opacity="0.03125"/><stop offset="50%" stop-color="#333333" stop-opacity="0.125"/><stop offset="75%" stop-color="#333333" stop-opacity="0.28125"/><stop offset="100%" stop-color="#333333" stop-opacity="0.5"/></radialGradient><radialGradient id="grad16" gradientUnits="userSpaceOnUse" cx="3.5" cy="3.5" r="0.5"><stop offset="0%" stop-color="#333333" stop-opacity="0"/><stop offset="25%" stop-color="#333333" stop-opacity="0.03125"/><stop offset="50%" stop-color="#333333" stop-opacity="0.125"/><stop offset="75%" stop-color="#333333" stop-opacity="0.28125"/><stop offset="100%" stop-color="#333333" stop-opacity="0.5"/></radialGradient><linearGradient id="grad17" gradientUnits="userSpaceOnUse" x1="4.5" y1="2" x2="4.5" y2="2.5"><stop offset="0%" stop-color="#333333" stop-opacity="0.5"/><stop offset="25%" stop-color="#333333" stop-opacity="0.28125"/><stop offset="50%" stop-color="#333333" stop-opacity="0.125"/><stop offset="75%" stop-color="#333333" stop-opacity="0.03125"/><stop offset="100%" stop-color="#333333" stop-opacity="0"/></linearGradient><linearGradient id="grad18" gradientUnits="userSpaceOnUse" x1="5" y1="2.5" x2="4.5" y2="2.5"><stop offset="0%" stop-color="#333333" stop-opacity="0.5"/><stop offset="25%" stop-color="#333333" stop-opacity="0.28125"/><stop offset="50%" stop-color="#333333" stop-opacity="0.125"/><stop offset="75%" stop-color="#333333" stop-opacity="0.03125"/><stop offset="100%" stop-color="#333333" stop-opacity="0"/></linearGradient><linearGradient id="grad19" gradientUnits="userSpaceOnUse" x1="4.5" y1="6" x2="4.5" y2="5.5"><stop offset="0%" stop-color="#333333" stop-opacity="0.5"/><stop offset="25%" stop-color="#333333" stop-opacity="0.28125"/><stop offset="50%" stop-color="#333333" stop-opacity="0.125"/><stop offset="75%" stop-color="#333333" stop-opacity="0.03125"/><stop offset="100%" stop-color="#333333" stop-opacity="0"/></linearGradient><linearGradient id="grad20" gradientUnits="userSpaceOnUse" x1="3" y1="5.5" x2="3.5" y2="5.5"><stop offset="0%" stop-color="#333333" stop-opacity="0.5"/><stop offset="25%" stop-color="#333333" stop-opacity="0.28125"/><stop offset="50%" stop-color="#333333" stop-opacity="0.125"/><stop offset="75%" stop-color="#333333" stop-opacity="0.03125"/><stop offset="100%" stop-color="#333333" stop-opacity="0"/></linearGradient><linearGradient id="grad21" gradientUnits="userSpaceOnUse" x1="3" y1="5" x2="3" y2="4.5"><stop offset="0%" stop-color="#333333" stop-opacity="0.5"/><stop offset="25%" stop-color="#333333" stop-opacity="0.28125"/><stop offset="50%" stop-color="#333333" stop-opacity="0.125"/><stop offset="75%" stop-color="#333333" stop-opacity="0.03125"/><stop offset="100%" stop-color="#333333" stop-opacity="0"/></linearGradient><linearGradient id="grad22" gradientUnits="userSpaceOnUse" x1="1" y1="4.5" x2="1.5" y2="4.5"><stop offset="0%" stop-color="#333333" stop-opacity="0.5"/><stop offset="25%" stop-color="#333333" stop-opacity="0.28125"/><stop offset="50%" stop-color="#333333" stop-opacity="0.125"/><stop offset="75%" stop-color="#333333" stop-opacity="0.03125"/><stop offset="100%" stop-color="#333333" stop-opacity="0"/></linearGradient><linearGradient id="grad23" gradientUnits="userSpaceOnUse" x1="1.5" y1="4" x2="1.5" y2="4.5"><stop offset="0%" stop-color="#333333" stop-opacity="0.5"/><stop offset="25%" stop-color="#333333" stop-opacity="0.28125"/><stop offset="50%" stop-color="#333333" stop-opacity="0.125"/><stop offset="75%" stop-color="#333333" stop-opacity="0.03125"/><stop offset="100%" stop-color="#333333" stop-opacity="0"/></linearGradient><linearGradient id="grad24" gradientUnits="userSpaceOnUse" x1="4" y1="4" x2="4.5" y2="4"><stop offset="0%" stop-color="#333333" stop-opacity="0.5"/><stop offset="25%" stop-color="#333333" stop-opacity="0.28125"/><stop offset="50%" stop-color="#333333" stop-opacity="0.125"/><stop offset="75%" stop-color="#333333" stop-opacity="0.03125"/><stop offset="100%" stop-color="#333333" stop-opacity="0"/></linearGradient><radialGradient id="grad25" gradientUnits="userSpaceOnUse" cx="4.5" cy="2.5" r="0.5"><stop offset="0%" stop-color="#333333" stop-opacity="0"/><stop offset="25%" stop-color="#333333" stop-opacity="0.03125"/><stop offset="50%" stop-color="#333333" stop-opacity="0.125"/><stop offset="75%" stop-color="#333333" stop-opacity="0.28125"/><stop offset="100%" stop-color="#333333" stop-opacity="0.5"/></radialGradient><radialGradient id="grad26" gradientUnits="userSpaceOnUse" cx="4.5" cy="2.5" r="0.5"><stop offset="0%" stop-color="#333333" stop-opacity="0"/><stop offset="25%" stop-color="#333333" stop-opacity="0.03125"/><stop offset="50%" stop-color="#333333" stop-opacity="0.125"/><stop offset="75%" stop-color="#333333" stop-opacity="0.28125"/><stop offset="100%" stop-color="#333333" stop-opacity="0.5"/></radialGradient><radialGradient id="grad27" gradientUnits="userSpaceOnUse" cx="4.5" cy="5.5" r="0.5"><stop offset="0%" stop-color="#333333" stop-opacity="0"/><stop offset="25%" stop-color="#333333" stop-opacity="0.03125"/><stop offset="50%" stop-color="#333333" stop-opacity="0.125"/><stop offset="75%" stop-color="#333333" stop-opacity="0.28125"/><stop offset="100%" stop-color="#333333" stop-opacity="0.5"/></radialGradient><radialGradient id="grad28" gradientUnits="userSpaceOnUse" cx="3.5" cy="5.5" r="0.5"><stop offset="0%" stop-color="#333333" stop-opacity="0"/><stop offset="25%" stop-color="#333333" stop-opacity="0.03125"/><stop offset="50%" stop-color="#333333" stop-opacity="0.125"/><stop offset="75%" stop-color="#333333" stop-opacity="0.28125"/><stop offset="100%" stop-color="#333333" stop-opacity="0.5"/></radialGradient><radialGradient id="grad29" gradientUnits="userSpaceOnUse" cx="3" cy="5" r="0.5"><stop offset="0%" stop-color="#333333" stop-opacity="0.5"/><stop offset="25%" stop-color="#333333" stop-opacity="0.28125"/><stop offset="50%" stop-color="#333333" stop-opacity="0.125"/><stop offset="75%" stop-color="#333333" stop-opacity="0.03125"/><stop offset="100%" stop-color="#333333" stop-opacity="0"/></radialGradient><radialGradient id="grad30" gradientUnits="userSpaceOnUse" cx="1.5" cy="4.5" r="0.5"><stop offset="0%" stop-color="#333333" stop-opacity="0"/><stop offset="25%" stop-color="#333333" stop-opacity="0.03125"/><stop offset="50%" stop-color="#333333" stop-opacity="0.125"/><stop offset="75%" stop-color="#333333" stop-opacity="0.28125"/><stop offset="100%" stop-color="#333333" stop-opacity="0.5"/></radialGradient><radialGradient id="grad31" gradientUnits="userSpaceOnUse" cx="1.5" cy="4.5" r="0.5"><stop offset="0%" stop-color="#333333" stop-opacity="0"/><stop offset="25%" stop-color="#333333" stop-opacity="0.03125"/><stop offset="50%" stop-color="#333333" stop-opacity="0.125"/><stop offset="75%" stop-color="#333333" stop-opacity="0.28125"/><stop offset="100%" stop-color="#333333" stop-opacity="0.5"/></radialGradient><radialGradient id="grad32" gradientUnits="userSpaceOnUse" cx="4" cy="4" r="0.5"><stop offset="0%" stop-color="#333333" stop-opacity="0.5"/><stop offset="25%" stop-color="#333333" stop-opacity="0.28125"/><stop offset="50%" stop-color="#333333" stop-opacity="0.125"/><stop offset="75%" stop-color="#333333" stop-opacity="0.03125"/><stop offset="100%" stop-color="#333333" stop-opacity="0"/></radialGradient><linearGradient id="grad33" gradientUnits="userSpaceOnUse" x1="0" y1="0.5" x2="0.5" y2="0.5"><stop offset="0%" stop-color="#333333" stop-opacity="0.5"/><stop offset="25%" stop-color="#333333" stop-opacity="0.28125"/><stop offset="50%" stop-color="#333333" stop-opacity="0.125"/><stop offset="75%" stop-color="#333333" stop-opacity="0.03125"/><stop offset="100%" stop-color="#333333" stop-opacity="0"/></linearGradient><linearGradient id="grad34" gradientUnits="userSpaceOnUse" x1="0.5" y1="0" x2="0.5" y2="0.5"><stop offset="0%" stop-color="#333333" stop-opacity="0.5"/><stop offset="25%" stop-color="#333333" stop-opacity="0.28125"/><stop offset="50%" stop-color="#333333" stop-opacity="0.125"/><stop offset="75%" stop-color="#333333" stop-opacity="0.03125"/><stop offset="100%" stop-color="#333333" stop-opacity="0"/></linearGradient><linearGradient id="grad35" gradientUnits="userSpaceOnUse" x1="3" y1="0.5" x2="2.5" y2="0.5"><stop offset="0%" stop-color="#333333" stop-opacity="0.5"/><stop offset="25%" stop-color="#333333" stop-opacity="0.28125"/><stop offset="50%" stop-color="#333333" stop-opacity="0.125"/><stop offset="75%" stop-color="#333333" stop-opacity="0.03125"/><stop offset="100%" stop-color="#333333" stop-opacity="0"/></linearGradient><linearGradient id="grad36" gradientUnits="userSpaceOnUse" x1="2.5" y1="1" x2="2.5" y2="0.5"><stop offset="0%" stop-color="#333333" stop-opacity="0.5"/><stop offset="25%" stop-color="#333333" stop-opacity="0.28125"/><stop offset="50%" stop-color="#333333" stop-opacity="0.125"/><stop offset="75%" stop-color="#333333" stop-opacity="0.03125"/><stop offset="100%" stop-color="#333333" stop-opacity="0"/></linearGradient><radialGradient id="grad37" gradientUnits="userSpaceOnUse" cx="0.5" cy="0.5" r="0.5"><stop offset="0%" stop-color="#333333" stop-opacity="0"/><stop offset="25%" stop-color="#333333" stop-opacity="0.03125"/><stop offset="50%" stop-color="#333333" stop-opacity="0.125"/><stop offset="75%" stop-color="#333333" stop-opacity="0.28125"/><stop offset="100%" stop-color="#333333" stop-opacity="0.5"/></radialGradient><radialGradient id="grad38" gradientUnits="userSpaceOnUse" cx="0.5" cy="0.5" r="0.5"><stop offset="0%" stop-color="#333333" stop-opacity="0"/><stop offset="25%" stop-color="#333333" stop-opacity="0.03125"/><stop offset="50%" stop-color="#333333" stop-opacity="0.125"/><stop offset="75%" stop-color="#333333" stop-opacity="0.28125"/><stop offset="100%" stop-color="#333333" stop-opacity="0.5"/></radialGradient><radialGradient id="grad39" gradientUnits="userSpaceOnUse" cx="2.5" cy="0.5" r="0.5"><stop offset="0%" stop-color="#333333" stop-opacity="0"/><stop offset="25%" stop-color="#333333" stop-opacity="0.03125"/><stop offset="50%" stop-color="#333333" stop-opacity="0.125"/><stop offset="75%" stop-color="#333333" stop-opacity="0.28125"/><stop offset="100%" stop-color="#333333" stop-opacity="0.5"/></radialGradient><radialGradient id="grad40" gradientUnits="userSpaceOnUse" cx="2.5" cy="0.5" r="0.5"><stop offset="0%" stop-color="#333333" stop-opacity="0"/><stop offset="25%" stop-color="#333333" stop-opacity="0.03125"/><stop offset="50%" stop-color="#333333" stop-opacity="0.125"/><stop offset="75%" stop-color="#333333" stop-opacity="0.28125"/><stop offset="100%" stop-color="#333333" stop-opacity="0.5"/></radialGradient><radialGradient id="grad41" gradientUnits="userSpaceOnUse" cx="5" cy="3.5" r="1"><stop offset="0%" stop-color="#FFFFFF"/><stop offset="20%" stop-color="#FFFFFF" stop-opacity="0.896"/><stop offset="40%" stop-color="#FFFFFF" stop-opacity="0.6479999999999999"/><stop offset="60%" stop-color="#FFFFFF" stop-opacity="0.352"/><stop offset="80%" stop-color="#FFFFFF" stop-opacity="0.10399999999999987"/><stop offset="100%" stop-color="#FFFFFF" stop-opacity="0"/></radialGradient><radialGradient id="grad42" gradientUnits="userSpaceOnUse" cx="5" cy="6" r="0.7"><stop offset="0%" stop-color="#333333" stop-opacity="0"/><stop offset="25%" stop-color="#333333" stop-opacity="0.03125"/><stop offset="50%" stop-color="#333333" stop-opacity="0.125"/><stop offset="75%" stop-color="#333333" stop-opacity="0.28125"/><stop offset="100%" stop-color="#333333" stop-opacity="0.5"/></radialGradient><radialGradient id="grad43" gradientUnits="userSpaceOnUse" cx="4.65" cy="6" r="1"><stop offset="0%" stop-color="#FFFFFF"/><stop offset="20%" stop-color="#FFFFFF" stop-opacity="0.896"/><stop offset="40%" stop-color="#FFFFFF" stop-opacity="0.6479999999999999"/><stop offset="60%" stop-color="#FFFFFF" stop-opacity="0.352"/><stop offset="80%" stop-color="#FFFFFF" stop-opacity="0.10399999999999987"/><stop offset="100%" stop-color="#FFFFFF" stop-opacity="0"/></radialGradient><radialGradient id="grad44" gradientUnits="userSpaceOnUse" cx="3.5" cy="2" r="1"><stop offset="0%" stop-color="#FFFFFF"/><stop offset="20%" stop-color="#FFFFFF" stop-opacity="0.896"/><stop offset="40%" stop-color="#FFFFFF" stop-opacity="0.6479999999999999"/><stop offset="60%" stop-color="#FFFFFF" stop-opacity="0.352"/><stop offset="80%" stop-color="#FFFFFF" stop-opacity="0.10399999999999987"/><stop offset="100%" stop-color="#FFFFFF" stop-opacity="0"/></radialGradient><radialGradient id="grad45" gradientUnits="userSpaceOnUse" cx="4.5" cy="2" r="1"><stop offset="0%" stop-color="#FFFFFF"/><stop offset="20%" stop-color="#FFFFFF" stop-opacity="0.896"/><stop offset="40%" stop-color="#FFFFFF" stop-opacity="0.6479999999999999"/><stop offset="60%" stop-color="#FFFFFF" stop-opacity="0.352"/><stop offset="80%" stop-color="#FFFFFF" stop-opacity="0.10399999999999987"/><stop offset="100%" stop-color="#FFFFFF" stop-opacity="0"/></radialGradient><radialGradient id="grad46" gradientUnits="userSpaceOnUse" cx="0.5" cy="1" r="1"><stop offset="0%" stop-color="#FFFFFF"/><stop offset="20%" stop-color="#FFFFFF" stop-opacity="0.896"/><stop offset="40%" stop-color="#FFFFFF" stop-opacity="0.6479999999999999"/><stop offset="60%" stop-color="#FFFFFF" stop-opacity="0.352"/><stop offset="80%" stop-color="#FFFFFF" stop-opacity="0.10399999999999987"/><stop offset="100%" stop-color="#FFFFFF" stop-opacity="0"/></radialGradient><radialGradient id="grad47" gradientUnits="userSpaceOnUse" cx="2" cy="3" r="2"><stop offset="0%" stop-color="#FFFFFF" stop-opacity="0.39999999999999997"/><stop offset="20%" stop-color="#FFFFFF" stop-opacity="0.3584"/><stop offset="40%" stop-color="#FFFFFF" stop-opacity="0.25919999999999993"/><stop offset="60%" stop-color="#FFFFFF" stop-opacity="0.14079999999999998"/><stop offset="80%" stop-color="#FFFFFF" stop-opacity="0.04159999999999994"/><stop offset="100%" stop-color="#FFFFFF" stop-opacity="0"/></radialGradient><radialGradient id="grad48" gradientUnits="userSpaceOnUse" cx="4" cy="5" r="2"><stop offset="0%" stop-color="#FFFFFF" stop-opacity="0.39999999999999997"/><stop offset="20%" stop-color="#FFFFFF" stop-opacity="0.3584"/><stop offset="40%" stop-color="#FFFFFF" stop-opacity="0.25919999999999993"/><stop offset="60%" stop-color="#FFFFFF" stop-opacity="0.14079999999999998"/><stop offset="80%" stop-color="#FFFFFF" stop-opacity="0.04159999999999994"/><stop offset="100%" stop-color="#FFFFFF" stop-opacity="0"/></radialGradient><radialGradient id="grad49" gradientUnits="userSpaceOnUse" cx="1.5" cy="0.5" r="1.225"><stop offset="0%" stop-color="#FFFFFF" stop-opacity="0.33030615433009314"/><stop offset="20%" stop-color="#FFFFFF" stop-opacity="0.29595431427976343"/><stop offset="40%" stop-color="#FFFFFF" stop-opacity="0.21403838800590033"/><stop offset="60%" stop-color="#FFFFFF" stop-opacity="0.11626776632419278"/><stop offset="80%" stop-color="#FFFFFF" stop-opacity="0.034351840050329645"/><stop offset="100%" stop-color="#FFFFFF" stop-opacity="0"/></radialGradient><radialGradient id="grad50" gradientUnits="userSpaceOnUse" cx="2" cy="3" r="2"><stop offset="0%" stop-color="#E3BA47" stop-opacity="0.39999999999999997"/><stop offset="20%" stop-color="#E5B242" stop-opacity="0.3584"/><stop offset="40%" stop-color="#EC9E36" stop-opacity="0.25919999999999993"/><stop offset="60%" stop-color="#F3832B" stop-opacity="0.14079999999999998"/><stop offset="80%" stop-color="#F86A26" stop-opacity="0.04159999999999994"/><stop offset="100%" stop-color="#FA5F24" stop-opacity="0"/></radialGradient><radialGradient id="grad51" gradientUnits="userSpaceOnUse" cx="4" cy="5" r="2"><stop offset="0%" stop-color="#E3BA47" stop-opacity="0.39999999999999997"/><stop offset="20%" stop-color="#E5B242" stop-opacity="0.3584"/><stop offset="40%" stop-color="#EC9E36" stop-opacity="0.25919999999999993"/><stop offset="60%" stop-color="#F3832B" stop-opacity="0.14079999999999998"/><stop offset="80%" stop-color="#F86A26" stop-opacity="0.04159999999999994"/><stop offset="100%" stop-color="#FA5F24" stop-opacity="0"/></radialGradient><radialGradient id="grad52" gradientUnits="userSpaceOnUse" cx="1.5" cy="0.5" r="1.225"><stop offset="0%" stop-color="#E3BA47" stop-opacity="0.33030615433009314"/><stop offset="20%" stop-color="#E5B242" stop-opacity="0.29595431427976343"/><stop offset="40%" stop-color="#EC9E36" stop-opacity="0.21403838800590033"/><stop offset="60%" stop-color="#F3832B" stop-opacity="0.11626776632419278"/><stop offset="80%" stop-color="#F86A26" stop-opacity="0.034351840050329645"/><stop offset="100%" stop-color="#FA5F24" stop-opacity="0"/></radialGradient></defs></svg>